<svg xmlns="http://www.w3.org/2000/svg" xmlns:xlink="http://www.w3.org/1999/xlink" width="500" zoomAndPan="magnify" viewBox="0 0 375 374.999991" height="500" preserveAspectRatio="xMidYMid meet" version="1.0"><defs><g/><clipPath id="8992237a72"><path d="M 14.761719 59.359375 L 360.511719 59.359375 L 360.511719 315.859375 L 14.761719 315.859375 Z M 14.761719 59.359375 " clip-rule="nonzero"/></clipPath><clipPath id="f0622e69f4"><path d="M 161.910156 164.0625 L 260.140625 164.0625 L 260.140625 262.296875 L 161.910156 262.296875 Z M 161.910156 164.0625 " clip-rule="nonzero"/></clipPath><clipPath id="b475463af0"><path d="M 211.027344 164.0625 C 183.898438 164.0625 161.910156 186.054688 161.910156 213.179688 C 161.910156 240.304688 183.898438 262.296875 211.027344 262.296875 C 238.152344 262.296875 260.140625 240.304688 260.140625 213.179688 C 260.140625 186.054688 238.152344 164.0625 211.027344 164.0625 " clip-rule="nonzero"/></clipPath></defs><rect x="-37.5" width="450" fill="#ffffff" y="-37.499999" height="449.999989" fill-opacity="1"/><rect x="-37.5" width="450" fill="#ffffff" y="-37.499999" height="449.999989" fill-opacity="1"/><rect x="-37.5" width="450" fill="#000000" y="-37.499999" height="449.999989" fill-opacity="1"/><path fill="#f0bc5e" d="M 209.9375 293.554688 C 163.820312 293.554688 126.300781 256.03125 126.300781 209.914062 C 126.300781 163.792969 163.820312 126.273438 209.9375 126.273438 C 256.054688 126.273438 293.574219 163.792969 293.574219 209.914062 C 293.574219 256.03125 256.054688 293.554688 209.9375 293.554688 Z M 209.9375 293.554688 " fill-opacity="1" fill-rule="nonzero"/><path fill="#ffffff" d="M 209.9375 193.183594 C 200.714844 193.183594 193.210938 200.691406 193.210938 209.914062 C 193.210938 219.136719 200.714844 226.640625 209.9375 226.640625 C 219.160156 226.640625 226.664062 219.136719 226.664062 209.914062 C 226.664062 200.691406 219.160156 193.183594 209.9375 193.183594 Z M 209.9375 215.488281 C 206.859375 215.488281 204.363281 212.984375 204.363281 209.914062 C 204.363281 206.839844 206.859375 204.335938 209.9375 204.335938 C 213.015625 204.335938 215.515625 206.839844 215.515625 209.914062 C 215.515625 212.984375 213.015625 215.488281 209.9375 215.488281 Z M 209.9375 215.488281 " fill-opacity="1" fill-rule="nonzero"/><path fill="#ffffff" d="M 209.9375 170.878906 C 188.421875 170.878906 170.90625 188.390625 170.90625 209.914062 C 170.90625 231.4375 188.421875 248.945312 209.9375 248.945312 C 231.457031 248.945312 248.96875 231.4375 248.96875 209.914062 C 248.96875 188.390625 231.457031 170.878906 209.9375 170.878906 Z M 209.9375 237.792969 C 194.566406 237.792969 182.058594 225.285156 182.058594 209.914062 C 182.058594 194.539062 194.566406 182.03125 209.9375 182.03125 C 225.3125 182.03125 237.816406 194.539062 237.816406 209.914062 C 237.816406 225.285156 225.3125 237.792969 209.9375 237.792969 Z M 209.9375 237.792969 " fill-opacity="1" fill-rule="nonzero"/><g clip-path="url(#8992237a72)"><path fill="#ffffff" d="M 332.605469 103.96875 L 286.777344 103.96875 L 280.902344 80.476562 C 277.796875 68.039062 266.675781 59.359375 253.859375 59.359375 L 166.019531 59.359375 C 153.199219 59.359375 142.082031 68.039062 138.96875 80.476562 L 133.097656 103.96875 L 115.148438 103.96875 L 115.148438 98.390625 C 115.148438 89.167969 107.644531 81.664062 98.421875 81.664062 L 76.121094 81.664062 C 66.898438 81.664062 59.390625 89.167969 59.390625 98.390625 L 59.390625 103.96875 L 42.664062 103.96875 C 27.292969 103.96875 14.785156 116.472656 14.785156 131.847656 L 14.785156 287.976562 C 14.785156 303.351562 27.292969 315.859375 42.664062 315.859375 L 332.605469 315.859375 C 347.976562 315.859375 360.484375 303.351562 360.484375 287.976562 L 360.484375 131.847656 C 360.484375 116.472656 347.976562 103.96875 332.605469 103.96875 Z M 141.808594 115.121094 L 149.785156 83.179688 C 151.65625 75.722656 158.328125 70.511719 166.019531 70.511719 L 253.859375 70.511719 C 261.546875 70.511719 268.222656 75.722656 270.089844 83.179688 L 278.070312 115.121094 L 332.605469 115.121094 C 341.828125 115.121094 349.332031 122.625 349.332031 131.847656 L 349.332031 271.25 L 296.15625 271.25 C 299.386719 266.726562 302.238281 261.945312 304.730469 256.929688 C 308.089844 258.914062 311.875 260.097656 315.878906 260.097656 C 328.179688 260.097656 338.179688 250.09375 338.179688 237.792969 C 338.179688 225.492188 328.179688 215.488281 315.878906 215.488281 C 315.785156 215.488281 315.6875 215.515625 315.59375 215.515625 C 315.695312 213.648438 315.878906 211.804688 315.878906 209.914062 C 315.878906 151.492188 268.355469 103.96875 209.9375 103.96875 C 151.519531 103.96875 104 151.492188 104 209.914062 C 104 232.78125 111.351562 253.917969 123.71875 271.25 L 81.695312 271.25 L 81.695312 181.46875 C 94.402344 178.875 104 167.617188 104 154.152344 L 104 115.121094 Z M 314.402344 226.785156 C 314.890625 226.71875 315.382812 226.640625 315.878906 226.640625 C 322.027344 226.640625 327.03125 231.644531 327.03125 237.792969 C 327.03125 243.945312 322.027344 248.945312 315.878906 248.945312 C 313.429688 248.945312 311.109375 248.097656 309.1875 246.613281 C 311.546875 240.261719 313.296875 233.640625 314.402344 226.785156 Z M 209.9375 304.707031 C 157.671875 304.707031 115.148438 262.183594 115.148438 209.914062 C 115.148438 157.644531 157.671875 115.121094 209.9375 115.121094 C 262.207031 115.121094 304.726562 157.644531 304.726562 209.914062 C 304.726562 262.183594 262.207031 304.707031 209.9375 304.707031 Z M 25.9375 182.03125 L 70.542969 182.03125 L 70.542969 271.25 L 25.9375 271.25 Z M 70.542969 98.390625 C 70.542969 95.320312 73.042969 92.816406 76.121094 92.816406 L 98.421875 92.816406 C 101.5 92.816406 104 95.320312 104 98.390625 L 104 103.96875 L 70.542969 103.96875 Z M 42.664062 115.121094 L 92.847656 115.121094 L 92.847656 154.152344 C 92.847656 163.375 85.34375 170.878906 76.121094 170.878906 L 25.9375 170.878906 L 25.9375 131.847656 C 25.9375 122.625 33.441406 115.121094 42.664062 115.121094 Z M 42.664062 304.707031 C 33.441406 304.707031 25.9375 297.199219 25.9375 287.976562 L 25.9375 282.402344 L 132.890625 282.402344 C 141.460938 291.507812 151.609375 299.074219 162.914062 304.707031 Z M 332.605469 304.707031 L 256.964844 304.707031 C 268.265625 299.074219 278.414062 291.507812 286.984375 282.402344 L 349.332031 282.402344 L 349.332031 287.976562 C 349.332031 297.199219 341.828125 304.707031 332.605469 304.707031 Z M 332.605469 304.707031 " fill-opacity="1" fill-rule="nonzero"/></g><path fill="#ffffff" d="M 48.242188 159.726562 L 70.542969 159.726562 C 76.695312 159.726562 81.695312 154.726562 81.695312 148.574219 L 81.695312 137.421875 C 81.695312 131.273438 76.695312 126.273438 70.542969 126.273438 L 48.242188 126.273438 C 42.089844 126.273438 37.089844 131.273438 37.089844 137.421875 L 37.089844 148.574219 C 37.089844 154.726562 42.089844 159.726562 48.242188 159.726562 Z M 48.242188 137.421875 L 70.542969 137.421875 L 70.550781 148.574219 L 48.242188 148.574219 Z M 48.242188 137.421875 " fill-opacity="1" fill-rule="nonzero"/><path fill="#ffffff" d="M 165.332031 81.664062 L 254.542969 81.664062 L 254.542969 92.816406 L 165.332031 92.816406 Z M 165.332031 81.664062 " fill-opacity="1" fill-rule="nonzero"/><path fill="#ffffff" d="M 321.453125 159.726562 C 330.675781 159.726562 338.179688 152.222656 338.179688 143 C 338.179688 133.777344 330.675781 126.273438 321.453125 126.273438 C 312.230469 126.273438 304.726562 133.777344 304.726562 143 C 304.726562 152.222656 312.230469 159.726562 321.453125 159.726562 Z M 321.453125 137.421875 C 324.53125 137.421875 327.03125 139.925781 327.03125 143 C 327.03125 146.074219 324.53125 148.574219 321.453125 148.574219 C 318.375 148.574219 315.878906 146.074219 315.878906 143 C 315.878906 139.925781 318.375 137.421875 321.453125 137.421875 Z M 321.453125 137.421875 " fill-opacity="1" fill-rule="nonzero"/><g clip-path="url(#f0622e69f4)"><g clip-path="url(#b475463af0)"><path fill="#edc366" d="M 161.910156 164.0625 L 260.140625 164.0625 L 260.140625 262.296875 L 161.910156 262.296875 Z M 161.910156 164.0625 " fill-opacity="1" fill-rule="nonzero"/></g></g><g fill="#000000" fill-opacity="1"><g transform="translate(140.166119, 227.054618)"><g><path d="M 8 -27.53125 C 7.9375 -26.832031 8.378906 -26.484375 9.328125 -26.484375 L 9.96875 -25.0625 L 9.59375 -24.71875 L 9.953125 -24.71875 C 8.253906 -19.726562 7.222656 -13.957031 6.859375 -7.40625 L 6.734375 -5.296875 L 7.078125 -4.9375 L 7.0625 -4.59375 L 6.6875 -4.234375 L 7.046875 -4.234375 L 6.671875 -3.890625 L 6.875 -1.40625 L 6.828125 -0.703125 C 5.566406 0.816406 4.910156 1.992188 4.859375 2.828125 L 3.453125 2.828125 L 1.75 2.125 L 2.25 -0.359375 L 0.890625 -1.765625 L 1.53125 -7.0625 L 1.890625 -13.421875 L 2.65625 -14.46875 L 2.734375 -15.890625 L 2.40625 -16.234375 L 2.4375 -16.59375 L 3.140625 -16.59375 L 3.15625 -16.953125 L 2.828125 -17.296875 L 4.25 -24 L 3.90625 -24 L 4.28125 -24.359375 L 4.375 -26.484375 L 4.046875 -26.828125 L 4.078125 -27.1875 Z M 4.09375 -21.1875 L 3.96875 -18.71875 L 4.3125 -18.71875 L 4.4375 -21.1875 Z M 3.546875 -17.65625 L 3.421875 -15.53125 L 3.78125 -15.53125 L 3.90625 -17.65625 Z M 3.015625 -14.46875 L 2.90625 -12.359375 L 3.265625 -12.359375 L 3.359375 -14.46875 Z M 2.953125 -0.359375 L 2.84375 1.40625 L 3.578125 0.703125 L 3.65625 -0.359375 Z M 2.953125 -0.359375 "/></g></g></g><g fill="#000000" fill-opacity="1"><g transform="translate(150.151478, 227.054618)"><g><path d="M 18.71875 -28.15625 L 19.421875 -28.15625 L 19.359375 -27.453125 L 18.53125 -26.046875 L 18.21875 -26.390625 L 17.859375 -26.390625 Z M 5.625 -27.8125 L 6.328125 -27.8125 L 7.328125 -27.09375 L 7.359375 -27.453125 C 8.609375 -27.210938 9.5 -26.625 10.03125 -25.6875 C 10.84375 -25.6875 11.6875 -23.21875 12.5625 -18.28125 L 17.4375 -25.6875 L 17.8125 -26.046875 L 18.171875 -26.046875 L 18.15625 -25.6875 L 13.140625 -16.859375 L 13.859375 -16.859375 C 17.546875 -24.160156 19.742188 -27.8125 20.453125 -27.8125 L 21.453125 -27.09375 L 21.46875 -27.453125 C 22.476562 -27.453125 23.675781 -26.273438 25.0625 -23.921875 L 24.96875 -22.859375 L 24.59375 -22.515625 L 24.90625 -22.15625 L 24.78125 -20.75 L 24.0625 -20.75 L 24.59375 -18.625 L 23.90625 -14.75 L 23.796875 -13.6875 L 24.125 -13.328125 L 24.09375 -12.984375 L 23.34375 -12.265625 L 23.96875 -11.5625 L 23.21875 -10.859375 L 23.84375 -10.15625 L 23.46875 -9.796875 L 23.109375 -9.796875 L 23.453125 -9.453125 L 22.578125 0.4375 C 21.867188 0.4375 21.488281 0.789062 21.4375 1.5 C 20.726562 1.5 20.316406 2.085938 20.203125 3.265625 L 19.140625 3.265625 L 17.15625 1.84375 L 17.6875 -0.265625 L 17.171875 -2.390625 L 19.5625 -17.5625 C 18.382812 -16.332031 17.097656 -13.742188 15.703125 -9.796875 C 15.578125 -8.429688 15.019531 -7.492188 14.03125 -6.984375 L 13.6875 -6.984375 L 13.703125 -7.328125 L 14.09375 -7.6875 L 14.140625 -8.03125 L 13.8125 -8.390625 L 14.578125 -9.09375 L 14.65625 -10.15625 L 13.953125 -10.15625 C 13.859375 -8.863281 13.304688 -7.921875 12.296875 -7.328125 L 11.9375 -7.328125 L 10.34375 -9.09375 C 9.71875 -9.09375 9.34375 -10.148438 9.21875 -12.265625 C 8.007812 -14.722656 7.457031 -16.488281 7.5625 -17.5625 L 7.203125 -17.5625 L 6.484375 -13.328125 L 6.234375 -10.515625 L 5.796875 -9.453125 L 5.984375 -7.6875 L 5.3125 0.078125 C 4.84375 0.078125 4.570312 0.429688 4.5 1.140625 L 2.59375 2.90625 L 2.25 2.90625 L -0.140625 1.84375 L 0.375 0.078125 L 0.359375 -3.796875 L 0.5 -5.5625 L 0.875 -5.921875 L 0.5625 -6.265625 L 0.609375 -6.625 C 0.921875 -10.226562 1.609375 -14.113281 2.671875 -18.28125 L 3.03125 -18.28125 L 2.703125 -18.625 L 2.734375 -18.984375 L 3.21875 -20.390625 L 2.96875 -21.8125 L 3.015625 -22.15625 L 3.359375 -22.15625 L 3.296875 -21.453125 L 3.65625 -21.453125 L 3.765625 -22.515625 L 3.421875 -22.859375 L 4.71875 -25.34375 L 4.796875 -26.390625 L 4.40625 -26.046875 L 4.046875 -26.046875 L 3.734375 -26.390625 L 3.828125 -27.453125 L 4.171875 -27.453125 L 4.5 -27.09375 L 4.859375 -27.09375 Z M 14.46875 -11.921875 L 14.75 -10.859375 L 15.09375 -10.859375 C 15.195312 -12.117188 16.648438 -15.296875 19.453125 -20.390625 L 19.953125 -22.15625 C 18.191406 -19.96875 16.363281 -16.554688 14.46875 -11.921875 Z M 20.765625 -19.328125 L 20.390625 -18.984375 L 19.609375 -10.15625 L 19.953125 -10.15625 L 20.96875 -17.5625 L 20.640625 -17.921875 L 21 -17.921875 L 20.6875 -18.28125 L 20.703125 -18.625 L 21.09375 -18.984375 L 21.125 -19.328125 Z M 18.46875 -0.96875 L 18.21875 1.84375 L 18.5625 1.84375 L 19.078125 0.078125 L 18.8125 -0.96875 Z M 18.46875 -0.96875 "/></g></g></g><g fill="#000000" fill-opacity="1"><g transform="translate(175.31209, 227.054618)"><g><path d="M 14.0625 -29.28125 C 14.207031 -28.570312 15.148438 -28.21875 16.890625 -28.21875 L 19.703125 -15.859375 L 22.171875 -15.859375 L 22.171875 -15.515625 L 20.0625 -15.15625 L 20.0625 -14.8125 C 20.769531 -14.8125 21.125 -14.570312 21.125 -14.09375 L 23.9375 -14.09375 L 23.9375 -13.75 C 23.9375 -13.21875 22.765625 -12.742188 20.421875 -12.328125 L 21.125 -10.21875 L 20.765625 -9.15625 L 21.125 -7.046875 L 20.765625 -6.6875 L 21.125 -6.6875 L 20.765625 -6.328125 L 21.125 -2.09375 L 21.125 0.015625 L 20.765625 -0.328125 L 20.421875 -0.328125 L 21.46875 4.96875 L 20.765625 4.96875 C 20.765625 4.257812 20.53125 3.90625 20.0625 3.90625 L 20.0625 4.25 L 20.421875 5.3125 L 20.0625 5.3125 L 19.703125 4.96875 L 19.359375 4.96875 C 19.359375 5.664062 19.125 6.015625 18.65625 6.015625 L 16.890625 0.015625 L 16.53125 0.015625 L 16.53125 1.4375 L 16.171875 1.4375 L 15.46875 -2.796875 L 16.53125 -2.09375 L 16.53125 -2.453125 C 16.332031 -4.566406 15.976562 -5.625 15.46875 -5.625 L 15.828125 -5.984375 L 15.828125 -7.046875 L 15.125 -7.046875 L 15.125 -5.984375 L 14.765625 -5.984375 L 14.765625 -7.390625 L 15.125 -7.75 L 14.765625 -7.75 L 14.40625 -7.390625 L 14.40625 -8.8125 L 14.765625 -8.8125 L 15.125 -8.453125 L 15.46875 -8.453125 L 15.125 -8.8125 L 15.125 -10.921875 L 7.359375 -9.15625 L 7.359375 -8.453125 L 9.828125 -9.15625 L 11.234375 -8.8125 L 13 -9.15625 L 13 -8.453125 C 8.0625 -7.566406 5.59375 -6.390625 5.59375 -4.921875 C 4.96875 -2.328125 4.257812 -0.679688 3.46875 0.015625 L 3.46875 0.734375 L 2.40625 0.734375 L 2.0625 0.375 L 1.703125 0.375 L 1.703125 0.734375 L 0.640625 0.015625 L 1.34375 -2.09375 L 1 -2.09375 C 0.289062 -2.09375 -0.0625 -1.148438 -0.0625 0.734375 L -0.765625 0.015625 L -0.421875 -2.09375 L -1.46875 -3.15625 L 4.53125 -17.625 L 4.875 -17.625 C 4.875 -16.925781 5.113281 -16.578125 5.59375 -16.578125 L 5.9375 -18.34375 L 5.59375 -17.984375 L 5.234375 -17.984375 L 5.234375 -19.390625 L 5.59375 -21.15625 L 5.9375 -20.8125 L 6.296875 -20.8125 L 5.9375 -21.15625 L 5.9375 -21.515625 L 6.640625 -22.921875 L 7 -22.921875 L 7.359375 -22.578125 L 7.703125 -22.578125 L 7.703125 -22.921875 C 7.703125 -23.398438 7.347656 -23.640625 6.640625 -23.640625 L 8.40625 -28.578125 L 9.828125 -28.578125 L 9.46875 -28.21875 L 9.46875 -27.875 C 11.101562 -28.8125 12.632812 -29.28125 14.0625 -29.28125 Z M 11.9375 -21.15625 L 9.109375 -13.75 L 9.828125 -13.75 C 12.179688 -13.75 13.472656 -14.453125 13.703125 -15.859375 L 12.296875 -21.15625 Z M 8.765625 -19.046875 L 8.0625 -16.578125 L 7.703125 -16.921875 L 7.359375 -16.921875 L 7.703125 -15.515625 L 8.0625 -15.515625 L 9.109375 -18.6875 L 9.109375 -19.046875 Z M 4.875 -15.859375 L 4.53125 -15.515625 L 4.53125 -14.8125 L 4.875 -14.8125 L 5.234375 -15.859375 Z M 7 -14.453125 L 6.640625 -13.046875 L 7 -13.046875 L 7.359375 -13.390625 L 7.359375 -14.453125 Z M 3.828125 -14.09375 L 3.46875 -12.6875 L 3.828125 -12.6875 L 4.53125 -14.09375 Z M 9.828125 -13.046875 L 9.828125 -12.6875 L 10.53125 -12.6875 C 12.644531 -12.925781 13.703125 -13.28125 13.703125 -13.75 L 13.359375 -13.75 Z M 14.765625 -5.28125 L 15.46875 -5.28125 L 15.46875 -3.15625 L 15.125 -3.15625 Z M 19.703125 -2.796875 L 19.703125 -2.09375 L 20.0625 -0.6875 L 20.421875 -0.6875 L 20.421875 -1.390625 L 20.0625 -2.796875 Z M 16.171875 -1.75 L 16.171875 -1.03125 L 17.234375 -1.390625 L 17.234375 -2.09375 Z M 16.171875 -1.75 "/></g></g></g><g fill="#000000" fill-opacity="1"><g transform="translate(200.223587, 227.054618)"><g><path d="M 15.0625 -27.078125 L 15.375 -26.734375 L 15.71875 -26.734375 L 15.765625 -27.078125 C 19.648438 -26.078125 21.5 -24.664062 21.3125 -22.84375 L 21.765625 -20.71875 L 21.0625 -20.71875 C 21.15625 -21.664062 20.96875 -22.140625 20.5 -22.140625 L 20.140625 -22.140625 L 20.328125 -20.375 L 20.265625 -20.015625 L 19.5625 -20.015625 C 19.09375 -20.015625 18.898438 -20.367188 18.984375 -21.078125 L 18.59375 -20.71875 L 18.234375 -20.71875 C 17.054688 -21.664062 15.925781 -22.140625 14.84375 -22.140625 C 12.488281 -22.140625 9.753906 -19.664062 6.640625 -14.71875 L 5.53125 -10.84375 C 5.175781 -7.707031 6.460938 -5.46875 9.390625 -4.125 L 9.296875 -3.421875 L 8.59375 -3.421875 L 8.5625 -3.078125 L 9.265625 -3.078125 C 10.941406 -3.078125 13.40625 -5.191406 16.65625 -9.421875 L 16.703125 -9.78125 L 16.34375 -9.78125 C 14.476562 -7.519531 12.769531 -5.875 11.21875 -4.84375 L 10.859375 -4.84375 L 15.25 -9.421875 L 12.765625 -9.421875 C 12.828125 -9.898438 12.503906 -10.140625 11.796875 -10.140625 L 11.484375 -10.484375 L 11.53125 -10.84375 C 11.570312 -11.3125 12.78125 -11.664062 15.15625 -11.90625 L 15.25 -12.609375 L 14.84375 -12.25 L 12.734375 -12.25 L 10.875 -14.71875 L 11.28125 -15.078125 L 11.296875 -15.4375 L 15.15625 -15.078125 L 24.4375 -16.140625 L 24.484375 -16.484375 C 23.304688 -16.484375 22.742188 -16.71875 22.796875 -17.1875 L 23.15625 -17.1875 L 23.46875 -16.84375 L 23.859375 -17.1875 L 24.21875 -17.1875 C 26.71875 -16.46875 27.941406 -15.882812 27.890625 -15.4375 L 27.875 -15.078125 L 27.46875 -14.71875 L 27.4375 -14.375 L 28.84375 -14.375 L 28.765625 -13.671875 L 28.40625 -13.671875 L 22.703125 -12.953125 L 22.65625 -12.609375 L 23.015625 -12.609375 L 26.234375 -12.953125 L 26.140625 -12.25 C 23.785156 -12.25 22.503906 -11.304688 22.296875 -9.421875 L 20.625 -3.78125 L 20.953125 -3.421875 L 20.90625 -3.078125 L 20.359375 -1.3125 L 20.421875 1.515625 L 19.640625 2.21875 L 19.9375 2.578125 C 18.96875 2.878906 18.441406 3.46875 18.359375 4.34375 L 17.296875 4.34375 C 16.828125 4.34375 16.703125 3.28125 16.921875 1.15625 L 16.578125 1.15625 L 16.296875 3.640625 L 15.25 3.640625 L 15.4375 1.875 L 15.34375 -0.609375 L 14.640625 -0.609375 C 13.296875 0.335938 11.945312 0.8125 10.59375 0.8125 L 8.828125 0.8125 L 8.21875 0.109375 L 8.25 -0.25 L 8.953125 -0.25 L 9 -0.609375 C 4.101562 -0.609375 1.457031 -2.253906 1.0625 -5.546875 C 0.78125 -7.066406 0.640625 -8.585938 0.640625 -10.109375 C 0.640625 -11.054688 0.695312 -12.003906 0.8125 -12.953125 L 0.875 -13.671875 C 1.082031 -15.460938 1.925781 -17.8125 3.40625 -20.71875 L 3.765625 -20.71875 L 3.671875 -20.015625 L 2.34375 -17.546875 L 2.328125 -17.1875 L 2.671875 -17.1875 C 2.910156 -19.34375 5.203125 -22.050781 9.546875 -25.3125 L 9.90625 -25.3125 L 9.953125 -25.671875 L 9.59375 -25.671875 L 8.5 -25.3125 C 9.1875 -26.488281 11.375 -27.078125 15.0625 -27.078125 Z M 7.765625 -24.96875 L 8.125 -24.96875 L 5.375 -22.484375 L 5.421875 -22.84375 Z M 12.953125 -24.25 L 12.9375 -23.90625 L 15.40625 -23.90625 L 15.4375 -24.25 Z M 5.375 -22.484375 L 5.3125 -22.140625 L 3.765625 -20.71875 L 3.796875 -21.078125 Z M 21 -16.84375 L 22.40625 -16.84375 L 21.625 -16.140625 Z M 10.515625 -4.84375 L 10.859375 -4.84375 L 10.09375 -4.125 L 9.734375 -4.125 Z M 12.234375 -1.3125 L 15.21875 -2.71875 L 15.3125 -3.421875 L 14.953125 -3.421875 Z M 9.65625 -0.25 L 9.640625 0.109375 L 11.40625 0.109375 L 11.421875 -0.25 Z M 9.65625 -0.25 "/></g></g></g><g fill="#000000" fill-opacity="1"><g transform="translate(225.737113, 227.054618)"><g><path d="M 8 -27.53125 C 7.9375 -26.832031 8.378906 -26.484375 9.328125 -26.484375 L 9.96875 -25.0625 L 9.59375 -24.71875 L 9.953125 -24.71875 C 8.253906 -19.726562 7.222656 -13.957031 6.859375 -7.40625 L 6.734375 -5.296875 L 7.078125 -4.9375 L 7.0625 -4.59375 L 6.6875 -4.234375 L 7.046875 -4.234375 L 6.671875 -3.890625 L 6.875 -1.40625 L 6.828125 -0.703125 C 5.566406 0.816406 4.910156 1.992188 4.859375 2.828125 L 3.453125 2.828125 L 1.75 2.125 L 2.25 -0.359375 L 0.890625 -1.765625 L 1.53125 -7.0625 L 1.890625 -13.421875 L 2.65625 -14.46875 L 2.734375 -15.890625 L 2.40625 -16.234375 L 2.4375 -16.59375 L 3.140625 -16.59375 L 3.15625 -16.953125 L 2.828125 -17.296875 L 4.25 -24 L 3.90625 -24 L 4.28125 -24.359375 L 4.375 -26.484375 L 4.046875 -26.828125 L 4.078125 -27.1875 Z M 4.09375 -21.1875 L 3.96875 -18.71875 L 4.3125 -18.71875 L 4.4375 -21.1875 Z M 3.546875 -17.65625 L 3.421875 -15.53125 L 3.78125 -15.53125 L 3.90625 -17.65625 Z M 3.015625 -14.46875 L 2.90625 -12.359375 L 3.265625 -12.359375 L 3.359375 -14.46875 Z M 2.953125 -0.359375 L 2.84375 1.40625 L 3.578125 0.703125 L 3.65625 -0.359375 Z M 2.953125 -0.359375 "/></g></g></g><g fill="#000000" fill-opacity="1"><g transform="translate(235.722471, 227.054618)"><g><path d="M 12.6875 -27.1875 L 13.046875 -27.1875 C 16.460938 -27.1875 19.050781 -25.773438 20.8125 -22.953125 L 20.8125 -22.59375 L 20.109375 -22.59375 L 20.453125 -22.234375 L 20.453125 -21.890625 C 19.046875 -22.054688 18.34375 -22.289062 18.34375 -22.59375 C 12.84375 -22.59375 8.722656 -19.769531 5.984375 -14.125 L 5.28125 -11.65625 L 6.328125 -4.9375 L 7.390625 -4.9375 C 10.328125 -4.9375 13.625 -7.054688 17.28125 -11.296875 L 17.625 -11.296875 L 17.625 -10.9375 C 15.125 -7.332031 12.300781 -5.21875 9.15625 -4.59375 L 9.15625 -4.234375 L 9.515625 -4.234375 C 11.972656 -4.234375 15.03125 -6.351562 18.6875 -10.59375 L 19.75 -9.171875 L 19.75 -8.125 C 19.75 -7.363281 17.984375 -5.597656 14.453125 -2.828125 L 14.09375 -2.46875 L 13.75 -2.46875 L 13.75 -1.765625 C 17.75 -3.710938 19.75 -5.125 19.75 -6 L 20.453125 -6 L 20.453125 -5.65625 C 17.492188 -2.125 14.082031 -0.359375 10.21875 -0.359375 L 10.21875 0 L 11.984375 0 L 13.390625 -0.359375 L 13.75 -0.359375 L 13.75 0 L 9.515625 0.6875 C 7.722656 0.6875 5.835938 -0.597656 3.859375 -3.171875 L 3.859375 -2.828125 L 5.625 0 L 5.625 0.328125 L 4.5625 0.328125 C 2.375 -1.160156 1.082031 -3.035156 0.6875 -5.296875 L 0.328125 -9.890625 C 0.328125 -15.785156 1.503906 -19.550781 3.859375 -21.1875 L 3.859375 -20.828125 L 1.75 -17.296875 L 1.75 -16.953125 L 2.09375 -16.953125 C 2.09375 -19.191406 5.035156 -22.367188 10.921875 -26.484375 L 9.859375 -26.125 L 9.515625 -26.125 L 9.515625 -26.484375 Z M 8.8125 -25.765625 L 9.15625 -25.765625 L 9.15625 -25.421875 L 6.6875 -24.359375 C 6.6875 -24.828125 7.394531 -25.296875 8.8125 -25.765625 Z M 5.625 -23.296875 L 5.625 -22.953125 L 3.859375 -21.1875 L 3.859375 -21.53125 Z M 1.390625 -6.359375 L 1.390625 -5.296875 L 1.75 -3.890625 L 2.09375 -3.890625 L 2.09375 -4.234375 L 1.75 -6.359375 Z M 1.390625 -6.359375 "/></g></g></g><g fill="#000000" fill-opacity="1"><g transform="translate(256.980282, 227.054618)"><g><path d="M 14.0625 -29.28125 C 14.207031 -28.570312 15.148438 -28.21875 16.890625 -28.21875 L 19.703125 -15.859375 L 22.171875 -15.859375 L 22.171875 -15.515625 L 20.0625 -15.15625 L 20.0625 -14.8125 C 20.769531 -14.8125 21.125 -14.570312 21.125 -14.09375 L 23.9375 -14.09375 L 23.9375 -13.75 C 23.9375 -13.21875 22.765625 -12.742188 20.421875 -12.328125 L 21.125 -10.21875 L 20.765625 -9.15625 L 21.125 -7.046875 L 20.765625 -6.6875 L 21.125 -6.6875 L 20.765625 -6.328125 L 21.125 -2.09375 L 21.125 0.015625 L 20.765625 -0.328125 L 20.421875 -0.328125 L 21.46875 4.96875 L 20.765625 4.96875 C 20.765625 4.257812 20.53125 3.90625 20.0625 3.90625 L 20.0625 4.25 L 20.421875 5.3125 L 20.0625 5.3125 L 19.703125 4.96875 L 19.359375 4.96875 C 19.359375 5.664062 19.125 6.015625 18.65625 6.015625 L 16.890625 0.015625 L 16.53125 0.015625 L 16.53125 1.4375 L 16.171875 1.4375 L 15.46875 -2.796875 L 16.53125 -2.09375 L 16.53125 -2.453125 C 16.332031 -4.566406 15.976562 -5.625 15.46875 -5.625 L 15.828125 -5.984375 L 15.828125 -7.046875 L 15.125 -7.046875 L 15.125 -5.984375 L 14.765625 -5.984375 L 14.765625 -7.390625 L 15.125 -7.75 L 14.765625 -7.75 L 14.40625 -7.390625 L 14.40625 -8.8125 L 14.765625 -8.8125 L 15.125 -8.453125 L 15.46875 -8.453125 L 15.125 -8.8125 L 15.125 -10.921875 L 7.359375 -9.15625 L 7.359375 -8.453125 L 9.828125 -9.15625 L 11.234375 -8.8125 L 13 -9.15625 L 13 -8.453125 C 8.0625 -7.566406 5.59375 -6.390625 5.59375 -4.921875 C 4.96875 -2.328125 4.257812 -0.679688 3.46875 0.015625 L 3.46875 0.734375 L 2.40625 0.734375 L 2.0625 0.375 L 1.703125 0.375 L 1.703125 0.734375 L 0.640625 0.015625 L 1.34375 -2.09375 L 1 -2.09375 C 0.289062 -2.09375 -0.0625 -1.148438 -0.0625 0.734375 L -0.765625 0.015625 L -0.421875 -2.09375 L -1.46875 -3.15625 L 4.53125 -17.625 L 4.875 -17.625 C 4.875 -16.925781 5.113281 -16.578125 5.59375 -16.578125 L 5.9375 -18.34375 L 5.59375 -17.984375 L 5.234375 -17.984375 L 5.234375 -19.390625 L 5.59375 -21.15625 L 5.9375 -20.8125 L 6.296875 -20.8125 L 5.9375 -21.15625 L 5.9375 -21.515625 L 6.640625 -22.921875 L 7 -22.921875 L 7.359375 -22.578125 L 7.703125 -22.578125 L 7.703125 -22.921875 C 7.703125 -23.398438 7.347656 -23.640625 6.640625 -23.640625 L 8.40625 -28.578125 L 9.828125 -28.578125 L 9.46875 -28.21875 L 9.46875 -27.875 C 11.101562 -28.8125 12.632812 -29.28125 14.0625 -29.28125 Z M 11.9375 -21.15625 L 9.109375 -13.75 L 9.828125 -13.75 C 12.179688 -13.75 13.472656 -14.453125 13.703125 -15.859375 L 12.296875 -21.15625 Z M 8.765625 -19.046875 L 8.0625 -16.578125 L 7.703125 -16.921875 L 7.359375 -16.921875 L 7.703125 -15.515625 L 8.0625 -15.515625 L 9.109375 -18.6875 L 9.109375 -19.046875 Z M 4.875 -15.859375 L 4.53125 -15.515625 L 4.53125 -14.8125 L 4.875 -14.8125 L 5.234375 -15.859375 Z M 7 -14.453125 L 6.640625 -13.046875 L 7 -13.046875 L 7.359375 -13.390625 L 7.359375 -14.453125 Z M 3.828125 -14.09375 L 3.46875 -12.6875 L 3.828125 -12.6875 L 4.53125 -14.09375 Z M 9.828125 -13.046875 L 9.828125 -12.6875 L 10.53125 -12.6875 C 12.644531 -12.925781 13.703125 -13.28125 13.703125 -13.75 L 13.359375 -13.75 Z M 14.765625 -5.28125 L 15.46875 -5.28125 L 15.46875 -3.15625 L 15.125 -3.15625 Z M 19.703125 -2.796875 L 19.703125 -2.09375 L 20.0625 -0.6875 L 20.421875 -0.6875 L 20.421875 -1.390625 L 20.0625 -2.796875 Z M 16.171875 -1.75 L 16.171875 -1.03125 L 17.234375 -1.390625 L 17.234375 -2.09375 Z M 16.171875 -1.75 "/></g></g></g></svg>