<svg xmlns="http://www.w3.org/2000/svg" xmlns:xlink="http://www.w3.org/1999/xlink" width="500" zoomAndPan="magnify" viewBox="0 0 375 374.999991" height="500" preserveAspectRatio="xMidYMid meet" version="1.0"><defs><g/><clipPath id="d504e47a86"><path d="M 38 76.226562 L 335 76.226562 L 335 298.976562 L 38 298.976562 Z M 38 76.226562 " clip-rule="nonzero"/></clipPath></defs><rect x="-37.5" width="450" fill="#ffffff" y="-37.499999" height="449.999989" fill-opacity="1"/><rect x="-37.5" width="450" fill="#ffffff" y="-37.499999" height="449.999989" fill-opacity="1"/><rect x="-37.5" width="450" fill="#ffffff" y="-37.499999" height="449.999989" fill-opacity="1"/><g clip-path="url(#d504e47a86)"><path fill="#000000" d="M 195.664062 77.824219 C 181.546875 80.648438 176.757812 83.597656 161.292969 99.570312 C 144.601562 116.773438 139.199219 119.84375 122.503906 121.808594 C 110.96875 123.039062 106.304688 121.808594 113.789062 119.351562 C 118.945312 117.632812 122.382812 114.070312 121.769531 111.121094 C 121.523438 109.890625 119.4375 107.804688 117.105469 106.453125 C 113.300781 104.117188 110.84375 103.871094 94.398438 103.871094 C 77.210938 103.996094 75.617188 104.117188 70.707031 106.941406 C 63.34375 111.121094 63.832031 114.929688 72.300781 119.476562 L 78.441406 122.914062 L 71.933594 122.914062 C 57.941406 122.914062 50.699219 129.671875 44.808594 147.734375 C 40.632812 160.632812 39.652344 170.832031 39.039062 210.761719 C 37.933594 276 39.652344 285.953125 53.644531 292.957031 L 60.640625 296.519531 L 107.285156 297.132812 C 139.8125 297.503906 153.929688 297.378906 153.929688 296.398438 C 153.929688 295.535156 139.320312 294.921875 108.265625 294.554688 C 59.292969 294.0625 55.855469 293.695312 49.71875 287.796875 C 42.351562 280.917969 41.863281 277.476562 41.246094 232.632812 C 40.511719 172.058594 43.457031 147.980469 53.769531 133.851562 C 59.535156 125.988281 62.851562 125.25 96.730469 124.757812 C 140.179688 124.019531 142.636719 123.039062 167.429688 96.375 C 180.441406 82.371094 193.207031 77.824219 216.53125 79.175781 C 237.886719 80.28125 248.320312 83.84375 254.703125 92.445312 C 265.015625 106.082031 266.734375 107.679688 274.589844 111.613281 C 279.128906 113.699219 283.425781 115.542969 284.285156 115.542969 C 285.144531 115.667969 287.230469 116.402344 288.828125 117.261719 L 291.894531 118.984375 L 287.84375 120.949219 C 285.511719 122.179688 283.058594 124.878906 282.074219 127.339844 C 275.449219 143.308594 297.171875 154.367188 307.363281 140.238281 C 310.554688 135.570312 310.0625 130.042969 305.890625 124.636719 L 303.1875 121.316406 L 307.730469 122.054688 C 324.179688 124.636719 330.191406 140.605469 332.523438 187.417969 C 333.261719 201.792969 331.296875 275.632812 329.945312 283.621094 C 329.457031 286.691406 328.351562 288.042969 324.792969 289.886719 C 314.972656 294.800781 308.222656 295.535156 272.378906 295.535156 C 213.828125 295.535156 190.261719 290.5 167.0625 272.808594 C 152.824219 261.996094 143.128906 247.253906 138.585938 229.804688 C 134.65625 214.816406 137.234375 192.457031 144.355469 176.972656 C 147.421875 170.460938 156.507812 158.667969 163.257812 152.523438 C 175.65625 141.097656 189.648438 135.445312 207.324219 134.339844 C 220.089844 133.605469 229.785156 135.203125 240.464844 139.746094 C 259.121094 147.734375 276.429688 167.023438 284.285156 188.648438 C 287.355469 197 287.84375 200.441406 287.96875 210.761719 C 288.089844 225.628906 284.777344 236.316406 276.183594 249.21875 C 271.027344 257.082031 257.527344 271.085938 248.445312 277.96875 C 246.113281 279.8125 244.636719 281.652344 245.007812 282.144531 C 246.96875 284.109375 266.976562 265.804688 276.0625 253.886719 C 288.703125 237.054688 293.613281 212.113281 288.214844 193.191406 C 283.671875 177.464844 272.746094 160.140625 261.085938 150.066406 C 253.351562 143.433594 238.746094 135.9375 228.679688 133.480469 C 187.070312 123.285156 143.863281 152.894531 135.394531 197.617188 C 134.535156 202.039062 134.167969 210.148438 134.535156 216.660156 C 136.253906 246.636719 152.945312 270.351562 183.265625 285.460938 C 195.292969 291.605469 212.234375 295.167969 239.238281 297.378906 C 258.753906 298.976562 294.964844 298.976562 306.992188 297.257812 C 318.164062 295.78125 328.597656 291.484375 330.683594 287.429688 C 331.664062 285.585938 332.894531 270.472656 333.996094 244.671875 C 337.066406 176.113281 332.648438 136.675781 320.742188 125.742188 C 317.058594 122.421875 312.761719 120.703125 302.453125 118.613281 C 293.367188 116.773438 279.988281 111.980469 272.625 107.925781 C 269.800781 106.328125 265.136719 102.027344 262.191406 98.34375 C 250.777344 84.089844 247.339844 81.511719 235.554688 78.929688 C 225.613281 76.71875 204.5 76.226562 195.664062 77.824219 Z M 115.019531 108.539062 C 117.71875 109.769531 119.558594 111.242188 119.3125 112.101562 C 118.332031 114.929688 109.371094 119.105469 100.902344 120.582031 C 91.082031 122.300781 78.316406 120.582031 71.933594 116.773438 C 65.183594 112.59375 67.394531 109.523438 79.054688 106.820312 C 86.296875 105.222656 109.738281 106.328125 115.019531 108.539062 Z M 302.574219 125.25 C 309.203125 131.761719 308.589844 138.640625 301.222656 142.941406 C 296.929688 145.523438 294.71875 145.523438 289.5625 143.1875 C 280.234375 138.640625 280.847656 126.476562 290.667969 122.179688 C 296.316406 119.71875 297.417969 119.964844 302.574219 125.25 Z M 302.574219 125.25 " fill-opacity="1" fill-rule="nonzero"/></g><g fill="#000000" fill-opacity="1"><g transform="translate(190.422268, 224.606968)"><g><path d="M 9.269531 -8.535156 C 8.878906 -10.351562 7.15625 -11.070312 5.460938 -11.070312 C 3.511719 -11.070312 0.765625 -10.035156 0.148438 -7.964844 C -0.0742188 -7.230469 -0.046875 -6.464844 0.0742188 -5.730469 C 0.148438 -5.296875 0.253906 -4.859375 0.375 -4.441406 C -0.824219 -4.695312 -2.023438 -5.039062 -3.074219 -5.671875 C -3.089844 -5.683594 -3.105469 -5.671875 -3.121094 -5.671875 C -3.136719 -5.65625 -3.136719 -5.625 -3.121094 -5.625 C -2.113281 -4.859375 -0.71875 -4.351562 0.496094 -4.035156 C 0.539062 -3.898438 0.601562 -3.765625 0.644531 -3.613281 C 1.140625 -2.25 1.785156 -0.960938 2.535156 0.285156 C 2.566406 0.328125 2.609375 0.359375 2.65625 0.359375 C 2.730469 0.359375 2.804688 0.285156 2.804688 0.210938 L 2.820312 -3.613281 C 2.894531 -3.601562 2.953125 -3.601562 3.03125 -3.585938 C 3.253906 -3.570312 3.480469 -3.554688 3.703125 -3.554688 C 3.855469 -3.554688 3.988281 -3.554688 4.140625 -3.570312 C 6.375 -3.660156 8.878906 -4.964844 9.328125 -7.320312 C 9.359375 -7.53125 9.375 -7.726562 9.359375 -7.949219 C 9.34375 -8.144531 9.328125 -8.339844 9.269531 -8.535156 Z M 2.535156 -0.316406 C 1.933594 -1.425781 1.410156 -2.566406 1.003906 -3.75 C 0.976562 -3.808594 0.960938 -3.871094 0.945312 -3.929688 C 1.5 -3.808594 2.070312 -3.703125 2.640625 -3.628906 Z M 8.65625 -7.441406 C 8.203125 -5.160156 5.609375 -4.078125 3.496094 -4.078125 C 3.359375 -4.078125 3.210938 -4.09375 3.058594 -4.09375 C 2.984375 -4.09375 2.894531 -4.109375 2.820312 -4.109375 L 2.835938 -7.695312 C 2.835938 -7.710938 2.820312 -7.726562 2.804688 -7.726562 C 2.789062 -7.726562 2.773438 -7.710938 2.773438 -7.695312 L 2.65625 -4.125 C 2.085938 -4.15625 1.515625 -4.230469 0.945312 -4.335938 C 0.898438 -4.335938 0.855469 -4.351562 0.808594 -4.351562 C 0.675781 -4.828125 0.554688 -5.308594 0.480469 -5.789062 C 0.390625 -6.480469 0.375 -7.199219 0.585938 -7.828125 C 1.125 -9.585938 3.585938 -10.5 5.308594 -10.5 C 5.429688 -10.5 5.566406 -10.5 5.683594 -10.484375 C 7.003906 -10.394531 8.324219 -9.796875 8.625 -8.386719 C 8.65625 -8.21875 8.671875 -8.054688 8.683594 -7.90625 C 8.683594 -7.769531 8.671875 -7.605469 8.65625 -7.441406 Z M 8.65625 -7.441406 "/></g></g></g><g fill="#000000" fill-opacity="1"><g transform="translate(196.407264, 224.606968)"><g><path d="M 4.050781 -0.121094 C 3.074219 -0.148438 2.789062 -0.585938 2.714844 -1.5 C 2.714844 -1.605469 2.699219 -1.695312 2.683594 -1.816406 C 2.671875 -1.875 2.671875 -1.933594 2.625 -2.023438 C 2.550781 -2.144531 2.460938 -2.234375 2.308594 -2.234375 C 2.265625 -2.234375 2.21875 -2.21875 2.191406 -2.203125 C 2.070312 -2.175781 2.023438 -2.113281 1.964844 -2.085938 C 1.84375 -1.964844 1.738281 -1.859375 1.636719 -1.726562 C 1.363281 -1.425781 1.109375 -1.140625 0.824219 -0.871094 C 0.796875 -0.839844 0.75 -0.796875 0.703125 -0.765625 C 0.703125 -1.003906 0.703125 -1.246094 0.703125 -1.484375 C 0.691406 -1.621094 0.703125 -1.753906 0.703125 -1.90625 C 1.199219 -2.371094 1.621094 -3 1.933594 -3.601562 C 2.355469 -4.273438 2.625 -5.113281 2.488281 -5.953125 C 2.460938 -6.164062 2.398438 -6.375 2.308594 -6.585938 C 2.203125 -6.78125 2.039062 -6.976562 1.785156 -7.078125 C 1.726562 -7.09375 1.664062 -7.109375 1.589844 -7.125 C 1.546875 -7.125 1.53125 -7.125 1.5 -7.125 L 1.484375 -7.125 C 1.453125 -7.125 1.453125 -7.125 1.441406 -7.125 L 1.378906 -7.109375 C 1.003906 -7.003906 0.839844 -6.628906 0.71875 -6.300781 C 0.433594 -5.503906 0.328125 -4.695312 0.238281 -3.898438 C 0.136719 -3.105469 0.0898438 -2.296875 0.046875 -1.5 C 0.03125 -1.09375 0.03125 -0.691406 0.046875 -0.285156 L 0.046875 -0.121094 L 0.0585938 -0.03125 C 0.0585938 -0.015625 0.0742188 0.015625 0.0742188 0.046875 C 0.0742188 0.046875 0.105469 0.136719 0.148438 0.179688 C 0.136719 0.210938 0.285156 0.328125 0.433594 0.328125 C 0.464844 0.328125 0.511719 0.316406 0.539062 0.300781 C 0.691406 0.226562 0.628906 0.238281 0.675781 0.210938 C 0.691406 0.179688 0.703125 0.164062 0.71875 0.136719 L 0.855469 0.015625 C 1.320312 -0.375 1.726562 -0.886719 2.085938 -1.363281 C 2.128906 -1.441406 2.191406 -1.5 2.234375 -1.558594 C 2.234375 -1.515625 2.25 -1.46875 2.265625 -1.425781 C 2.414062 -0.644531 2.730469 -0.015625 3.613281 -0.015625 C 3.765625 -0.015625 3.914062 -0.03125 4.050781 -0.0585938 C 4.066406 -0.0585938 4.078125 -0.0742188 4.078125 -0.0898438 C 4.078125 -0.105469 4.066406 -0.121094 4.050781 -0.121094 Z M 1.125 -6.148438 C 1.171875 -6.328125 1.246094 -6.496094 1.335938 -6.613281 C 1.394531 -6.675781 1.441406 -6.71875 1.46875 -6.734375 L 1.484375 -6.734375 C 1.484375 -6.734375 1.5 -6.734375 1.484375 -6.734375 L 1.5 -6.734375 C 1.53125 -6.734375 1.558594 -6.734375 1.574219 -6.734375 C 1.589844 -6.734375 1.636719 -6.71875 1.664062 -6.71875 C 1.921875 -6.628906 2.101562 -6.253906 2.175781 -5.910156 C 2.25 -5.535156 2.234375 -5.144531 2.160156 -4.769531 C 2.039062 -4.035156 1.246094 -2.65625 0.703125 -2.023438 C 0.703125 -3.300781 0.75 -4.933594 1.125 -6.148438 Z M 0.75 0.046875 C 0.765625 0 0.765625 0.03125 0.75 0.046875 Z M 0.75 0.046875 "/></g></g></g><g fill="#000000" fill-opacity="1"><g transform="translate(200.577262, 224.606968)"><g><path d="M 3.644531 -1.453125 C 3.644531 -1.46875 3.628906 -1.46875 3.601562 -1.46875 C 3.449219 -1.410156 3.285156 -1.363281 3.121094 -1.320312 C 3.105469 -1.363281 3.074219 -1.394531 3.046875 -1.441406 C 2.953125 -1.558594 2.835938 -1.648438 2.730469 -1.738281 C 2.609375 -1.816406 2.476562 -1.890625 2.339844 -1.949219 C 2.28125 -1.964844 2.203125 -1.996094 2.113281 -2.011719 C 1.980469 -2.011719 1.84375 -1.996094 1.769531 -1.859375 L 1.753906 -1.84375 C 1.695312 -1.695312 1.738281 -1.558594 1.800781 -1.453125 C 1.859375 -1.351562 1.933594 -1.273438 2.023438 -1.214844 C 2.203125 -1.109375 2.414062 -1.078125 2.609375 -1.078125 C 2.640625 -1.078125 2.683594 -1.09375 2.730469 -1.09375 C 2.746094 -1.035156 2.761719 -0.988281 2.761719 -0.960938 C 2.761719 -0.734375 1.816406 -0.691406 1.664062 -0.691406 C 1.425781 -0.703125 1.199219 -0.71875 0.988281 -0.75 C 0.796875 -0.796875 0.644531 -0.871094 0.601562 -0.960938 C 0.539062 -1.050781 0.570312 -1.261719 0.703125 -1.425781 C 0.839844 -1.589844 1.035156 -1.710938 1.289062 -1.769531 C 1.304688 -1.769531 1.320312 -1.785156 1.320312 -1.800781 C 1.320312 -1.816406 1.320312 -1.828125 1.289062 -1.828125 C 1.199219 -1.859375 1.09375 -1.875 0.988281 -1.875 C 0.808594 -1.875 0.628906 -1.828125 0.449219 -1.710938 C 0.316406 -1.636719 0.210938 -1.5 0.121094 -1.351562 C 0.046875 -1.199219 0 -0.988281 0.046875 -0.796875 C 0.226562 -0.210938 0.839844 -0.03125 1.394531 -0.03125 C 1.828125 -0.03125 2.578125 -0.136719 2.941406 -0.421875 C 3.074219 -0.511719 3.238281 -0.703125 3.238281 -0.929688 C 3.238281 -1.035156 3.226562 -1.125 3.179688 -1.199219 C 3.34375 -1.261719 3.496094 -1.335938 3.628906 -1.410156 C 3.644531 -1.425781 3.660156 -1.441406 3.644531 -1.453125 Z M 2.191406 -1.441406 C 2.101562 -1.5 2.054688 -1.589844 2.054688 -1.648438 C 2.101562 -1.648438 2.144531 -1.636719 2.191406 -1.605469 C 2.296875 -1.558594 2.386719 -1.484375 2.476562 -1.410156 C 2.519531 -1.378906 2.566406 -1.335938 2.609375 -1.289062 C 2.445312 -1.304688 2.296875 -1.351562 2.191406 -1.441406 Z M 2.191406 -1.441406 "/></g></g><g transform="translate(204.327262, 224.606968)"><g><path d="M -4.140625 -3.929688 L -4.199219 -3.914062 L -4.230469 -3.914062 L -4.246094 -3.898438 C -4.261719 -3.914062 -4.351562 -3.886719 -4.453125 -3.75 C -4.664062 -3.703125 -4.289062 -3.253906 -4.214844 -3.253906 C -4.199219 -3.253906 -4.199219 -3.269531 -4.199219 -3.285156 L -4.09375 -3.285156 L -3.734375 -3.328125 C -2.429688 -3.496094 -1.109375 -3.601562 0.210938 -3.703125 C 0.210938 -3.628906 0.195312 -3.554688 0.195312 -3.480469 C 0.148438 -2.953125 0.136719 -2.429688 0.179688 -1.90625 C 0.195312 -1.648438 0.226562 -1.378906 0.300781 -1.125 C 0.359375 -0.855469 0.449219 -0.585938 0.644531 -0.375 C 0.855469 -0.0898438 1.09375 -0.046875 1.410156 -0.046875 C 1.695312 -0.0742188 1.933594 -0.210938 2.144531 -0.359375 C 2.160156 -0.359375 2.160156 -0.375 2.160156 -0.390625 C 2.144531 -0.421875 2.128906 -0.421875 2.113281 -0.421875 C 1.890625 -0.300781 1.636719 -0.226562 1.410156 -0.226562 C 0.628906 -0.226562 0.585938 -1.363281 0.585938 -1.921875 C 0.601562 -2.460938 0.628906 -3.210938 0.78125 -3.734375 C 4.15625 -4.019531 7.574219 -4.171875 10.964844 -4.171875 C 11.699219 -4.171875 12.433594 -4.15625 13.15625 -4.078125 C 13.171875 -4.078125 13.199219 -4.09375 13.199219 -4.109375 C 13.199219 -4.125 13.183594 -4.140625 13.171875 -4.15625 C 12.226562 -4.273438 11.28125 -4.304688 10.351562 -4.335938 C 9.40625 -4.363281 8.460938 -4.378906 7.515625 -4.378906 C 5.308594 -4.378906 3.105469 -4.320312 0.898438 -4.214844 C 0.914062 -4.304688 0.945312 -4.394531 0.976562 -4.46875 C 0.988281 -4.515625 1.019531 -4.574219 1.035156 -4.621094 L 1.078125 -4.695312 L 0.660156 -5.144531 C 0 -4.636719 -2.25 -4.246094 -3.226562 -4.078125 L -4.09375 -3.929688 L -4.109375 -3.929688 C -4.125 -3.945312 -4.140625 -3.929688 -4.140625 -3.929688 Z M 0.300781 -4.230469 C 0.285156 -4.214844 0.285156 -4.199219 0.285156 -4.199219 C 0.253906 -4.199219 0.226562 -4.183594 0.195312 -4.183594 C 0.226562 -4.199219 0.253906 -4.214844 0.300781 -4.230469 Z M -4.09375 -3.914062 L -4.15625 -3.914062 C -4.15625 -3.914062 -4.140625 -3.914062 -4.140625 -3.929688 L -4.109375 -3.929688 C -4.109375 -3.929688 -4.09375 -3.929688 -4.09375 -3.914062 Z M -4.09375 -3.914062 "/></g></g></g><g fill="#000000" fill-opacity="1"><g transform="translate(206.772258, 224.606968)"><g><path d="M 3.644531 -1.453125 C 3.644531 -1.46875 3.628906 -1.46875 3.601562 -1.46875 C 3.449219 -1.410156 3.285156 -1.363281 3.121094 -1.320312 C 3.105469 -1.363281 3.074219 -1.394531 3.046875 -1.441406 C 2.953125 -1.558594 2.835938 -1.648438 2.730469 -1.738281 C 2.609375 -1.816406 2.476562 -1.890625 2.339844 -1.949219 C 2.28125 -1.964844 2.203125 -1.996094 2.113281 -2.011719 C 1.980469 -2.011719 1.84375 -1.996094 1.769531 -1.859375 L 1.753906 -1.84375 C 1.695312 -1.695312 1.738281 -1.558594 1.800781 -1.453125 C 1.859375 -1.351562 1.933594 -1.273438 2.023438 -1.214844 C 2.203125 -1.109375 2.414062 -1.078125 2.609375 -1.078125 C 2.640625 -1.078125 2.683594 -1.09375 2.730469 -1.09375 C 2.746094 -1.035156 2.761719 -0.988281 2.761719 -0.960938 C 2.761719 -0.734375 1.816406 -0.691406 1.664062 -0.691406 C 1.425781 -0.703125 1.199219 -0.71875 0.988281 -0.75 C 0.796875 -0.796875 0.644531 -0.871094 0.601562 -0.960938 C 0.539062 -1.050781 0.570312 -1.261719 0.703125 -1.425781 C 0.839844 -1.589844 1.035156 -1.710938 1.289062 -1.769531 C 1.304688 -1.769531 1.320312 -1.785156 1.320312 -1.800781 C 1.320312 -1.816406 1.320312 -1.828125 1.289062 -1.828125 C 1.199219 -1.859375 1.09375 -1.875 0.988281 -1.875 C 0.808594 -1.875 0.628906 -1.828125 0.449219 -1.710938 C 0.316406 -1.636719 0.210938 -1.5 0.121094 -1.351562 C 0.046875 -1.199219 0 -0.988281 0.046875 -0.796875 C 0.226562 -0.210938 0.839844 -0.03125 1.394531 -0.03125 C 1.828125 -0.03125 2.578125 -0.136719 2.941406 -0.421875 C 3.074219 -0.511719 3.238281 -0.703125 3.238281 -0.929688 C 3.238281 -1.035156 3.226562 -1.125 3.179688 -1.199219 C 3.34375 -1.261719 3.496094 -1.335938 3.628906 -1.410156 C 3.644531 -1.425781 3.660156 -1.441406 3.644531 -1.453125 Z M 2.191406 -1.441406 C 2.101562 -1.5 2.054688 -1.589844 2.054688 -1.648438 C 2.101562 -1.648438 2.144531 -1.636719 2.191406 -1.605469 C 2.296875 -1.558594 2.386719 -1.484375 2.476562 -1.410156 C 2.519531 -1.378906 2.566406 -1.335938 2.609375 -1.289062 C 2.445312 -1.304688 2.296875 -1.351562 2.191406 -1.441406 Z M 2.191406 -1.441406 "/></g></g><g transform="translate(210.522258, 224.606968)"><g><path d="M 15.808594 1.078125 C 15.796875 1.066406 15.78125 1.066406 15.765625 1.066406 C 14.59375 1.679688 12.570312 1.753906 11.25 1.753906 C 9.929688 1.753906 8.59375 1.664062 7.273438 1.574219 C 5.835938 1.453125 4.410156 1.304688 2.984375 1.15625 L 2.941406 1.140625 C 2.953125 0.824219 2.953125 0.511719 2.96875 0.195312 C 2.96875 -0.253906 2.953125 -0.71875 2.910156 -1.171875 L 2.386719 -1.246094 C 2.398438 -1.304688 2.371094 -1.246094 2.339844 -1.214844 C 2.308594 -1.183594 2.28125 -1.15625 2.234375 -1.125 C 1.90625 -0.855469 1.183594 -0.464844 0.75 -0.433594 C 0.71875 -0.433594 0.691406 -0.433594 0.660156 -0.433594 C 0.601562 -0.433594 0.539062 -0.433594 0.496094 -0.449219 C 0.464844 -0.464844 0.433594 -0.480469 0.421875 -0.511719 C 0.40625 -0.523438 0.390625 -0.523438 0.375 -0.601562 C 0.328125 -0.75 0.375 -0.976562 0.480469 -1.15625 C 0.675781 -1.515625 1.15625 -2.039062 1.605469 -2.039062 C 1.769531 -2.039062 1.933594 -1.964844 2.011719 -1.800781 C 2.011719 -1.785156 2.023438 -1.769531 2.054688 -1.785156 C 2.070312 -1.785156 2.070312 -1.800781 2.070312 -1.816406 L 2.070312 -1.828125 C 1.933594 -2.160156 1.726562 -2.175781 1.425781 -2.175781 C 0.960938 -2.101562 0.464844 -1.710938 0.210938 -1.320312 C 0.0742188 -1.09375 -0.046875 -0.824219 0.015625 -0.496094 C 0.03125 -0.464844 0.03125 -0.449219 0.046875 -0.40625 C 0.0742188 -0.359375 0.0898438 -0.316406 0.121094 -0.269531 C 0.164062 -0.195312 0.238281 -0.148438 0.316406 -0.105469 C 0.480469 -0.03125 0.628906 -0.015625 0.765625 -0.015625 C 1.050781 -0.015625 1.289062 -0.0898438 1.546875 -0.164062 C 1.785156 -0.253906 2.011719 -0.359375 2.234375 -0.480469 C 2.28125 -0.511719 2.324219 -0.539062 2.371094 -0.570312 C 2.371094 -0.015625 2.339844 0.523438 2.28125 1.078125 L 0.839844 0.914062 C 0.480469 0.871094 0.121094 0.839844 -0.238281 0.808594 C -0.421875 0.796875 -0.601562 0.78125 -0.78125 0.765625 C -0.886719 0.765625 -0.976562 0.765625 -1.078125 0.765625 C -1.125 0.765625 -1.171875 0.765625 -1.230469 0.78125 C -1.261719 0.78125 -1.289062 0.78125 -1.335938 0.796875 C -1.363281 0.796875 -1.378906 0.808594 -1.410156 0.824219 C -1.453125 0.839844 -1.5 0.871094 -1.558594 0.945312 C -1.558594 0.960938 -1.574219 0.976562 -1.574219 0.988281 C -1.636719 1.125 -1.574219 1.273438 -1.441406 1.335938 L -1.425781 1.351562 C -0.359375 1.828125 0.496094 2.625 1.019531 3.675781 L 1.246094 4.09375 C 1.261719 4.109375 1.273438 4.140625 1.289062 4.15625 C 1.304688 4.171875 1.335938 4.199219 1.363281 4.230469 L 1.378906 4.246094 C 1.394531 4.246094 1.425781 4.273438 1.453125 4.273438 C 1.5 4.289062 1.546875 4.304688 1.589844 4.304688 C 1.621094 4.304688 1.636719 4.289062 1.664062 4.289062 C 1.679688 4.289062 1.679688 4.273438 1.695312 4.273438 C 2.609375 3.886719 2.804688 2.476562 2.894531 1.589844 L 2.941406 1.589844 C 5.28125 1.816406 7.636719 1.980469 9.988281 1.980469 C 11.609375 1.980469 14.355469 1.949219 15.796875 1.125 C 15.808594 1.125 15.824219 1.09375 15.808594 1.078125 Z M 1.664062 3.464844 L 1.605469 3.359375 C 1.140625 2.535156 0.539062 1.828125 -0.269531 1.335938 L 2.234375 1.53125 C 2.175781 2.070312 2.023438 3.03125 1.664062 3.464844 Z M 1.664062 3.464844 "/></g></g></g><g fill="#000000" fill-opacity="1"><g transform="translate(213.852259, 224.606968)"><g><path d="M 2.820312 -0.316406 C 2.65625 -0.285156 2.488281 -0.253906 2.339844 -0.253906 C 2.203125 -0.253906 2.085938 -0.269531 1.996094 -0.316406 C 1.785156 -0.421875 1.785156 -0.644531 1.816406 -0.914062 L 1.828125 -1.140625 C 1.84375 -1.230469 1.859375 -1.289062 1.828125 -1.441406 C 1.828125 -1.484375 1.816406 -1.53125 1.753906 -1.605469 C 1.710938 -1.679688 1.574219 -1.738281 1.484375 -1.738281 C 1.410156 -1.738281 1.363281 -1.726562 1.304688 -1.710938 C 1.289062 -1.695312 1.304688 -1.710938 1.261719 -1.695312 L 1.246094 -1.695312 C 1.199219 -1.679688 1.140625 -1.664062 1.078125 -1.648438 C 0.929688 -1.621094 0.75 -1.605469 0.554688 -1.574219 C 0.554688 -1.605469 0.554688 -1.648438 0.539062 -1.679688 C 0.523438 -1.726562 0.496094 -1.800781 0.449219 -1.828125 L 0.433594 -1.828125 C 0.40625 -1.828125 0.390625 -1.816406 0.390625 -1.800781 C 0.390625 -1.738281 0.316406 -1.648438 0.269531 -1.621094 C 0.238281 -1.589844 0.210938 -1.558594 0.179688 -1.546875 C 0.148438 -1.515625 0.121094 -1.484375 0.105469 -1.46875 C 0.0585938 -1.453125 0.046875 -1.425781 0.015625 -1.394531 C -0.015625 -1.304688 0.015625 -1.199219 0.105469 -1.171875 L 0.226562 -1.109375 C 0.421875 -1.003906 0.644531 -0.945312 0.871094 -0.945312 C 1.003906 -0.945312 1.125 -0.960938 1.261719 -1.003906 C 1.289062 -1.003906 1.304688 -1.019531 1.320312 -1.035156 L 1.335938 -0.914062 C 1.351562 -0.765625 1.363281 -0.585938 1.441406 -0.40625 C 1.53125 -0.226562 1.710938 -0.0585938 1.90625 -0.03125 C 1.949219 -0.015625 2.011719 -0.015625 2.054688 -0.015625 C 2.296875 -0.015625 2.625 -0.136719 2.835938 -0.253906 C 2.851562 -0.253906 2.851562 -0.269531 2.851562 -0.285156 C 2.851562 -0.300781 2.835938 -0.316406 2.820312 -0.316406 Z M 1.304688 -1.261719 C 1.289062 -1.273438 1.289062 -1.289062 1.289062 -1.289062 C 1.289062 -1.304688 1.289062 -1.289062 1.304688 -1.261719 Z M 1.304688 -1.261719 "/></g></g></g><g fill="#000000" fill-opacity="1"><g transform="translate(216.792257, 224.606968)"><g><path d="M 3.988281 -0.554688 C 3.78125 -0.496094 3.539062 -0.433594 3.328125 -0.433594 C 2.910156 -0.433594 2.683594 -0.644531 2.566406 -1.050781 L 2.535156 -1.183594 C 2.535156 -1.183594 2.535156 -1.183594 2.503906 -1.261719 C 2.476562 -1.304688 2.398438 -1.335938 2.355469 -1.351562 C 2.324219 -1.351562 2.296875 -1.351562 2.265625 -1.351562 C 2.128906 -1.304688 2.070312 -1.261719 1.996094 -1.230469 C 1.84375 -1.140625 1.710938 -1.066406 1.574219 -0.976562 C 1.304688 -0.808594 1.035156 -0.644531 0.78125 -0.585938 C 0.734375 -0.570312 0.691406 -0.570312 0.644531 -0.570312 C 0.601562 -0.570312 0.628906 -0.570312 0.644531 -0.570312 C 0.660156 -0.554688 0.644531 -0.585938 0.644531 -0.628906 C 0.644531 -0.660156 0.660156 -0.691406 0.675781 -0.734375 C 0.734375 -0.886719 0.929688 -1.09375 1.15625 -1.246094 C 1.363281 -1.425781 1.621094 -1.558594 1.890625 -1.648438 C 2.011719 -1.679688 2.128906 -1.710938 2.25 -1.710938 C 2.398438 -1.710938 2.519531 -1.679688 2.640625 -1.546875 C 2.65625 -1.53125 2.65625 -1.53125 2.671875 -1.53125 C 2.683594 -1.53125 2.699219 -1.546875 2.699219 -1.558594 L 2.699219 -1.574219 C 2.683594 -1.738281 2.550781 -1.921875 2.371094 -1.996094 C 2.191406 -2.085938 2.011719 -2.101562 1.816406 -2.101562 C 1.109375 -2.101562 0.253906 -1.621094 0.046875 -0.914062 C 0.015625 -0.808594 0 -0.675781 0.03125 -0.539062 C 0.0585938 -0.433594 0.0898438 -0.300781 0.210938 -0.179688 C 0.328125 -0.046875 0.511719 0 0.644531 0 C 0.765625 -0.015625 0.871094 -0.046875 0.960938 -0.0742188 C 1.304688 -0.226562 1.558594 -0.433594 1.816406 -0.613281 C 1.949219 -0.71875 2.070312 -0.808594 2.191406 -0.898438 C 2.21875 -0.914062 2.234375 -0.929688 2.25 -0.945312 L 2.265625 -0.929688 C 2.339844 -0.78125 2.429688 -0.613281 2.566406 -0.496094 C 2.683594 -0.359375 2.878906 -0.269531 3.046875 -0.253906 C 3.421875 -0.253906 3.660156 -0.328125 4.003906 -0.496094 C 4.019531 -0.496094 4.035156 -0.511719 4.019531 -0.523438 C 4.019531 -0.554688 4.003906 -0.554688 3.988281 -0.554688 Z M 2.203125 -1.078125 C 2.203125 -1.09375 2.203125 -1.09375 2.203125 -1.078125 Z M 2.203125 -1.078125 "/></g></g></g><g fill="#000000" fill-opacity="1"><g transform="translate(220.692255, 224.606968)"><g><path d="M 3.195312 -0.898438 C 3.179688 -1.019531 3.148438 -1.125 3.089844 -1.214844 C 2.894531 -1.546875 2.609375 -1.664062 2.355469 -1.785156 C 2.085938 -1.875 1.816406 -1.933594 1.546875 -1.964844 C 1.484375 -1.964844 1.425781 -1.964844 1.363281 -1.964844 C 0.929688 -1.964844 0.253906 -1.875 0.0898438 -1.378906 C 0.0898438 -1.363281 0.0898438 -1.351562 0.105469 -1.335938 C 0.121094 -1.335938 0.148438 -1.335938 0.148438 -1.351562 C 0.285156 -1.558594 0.539062 -1.636719 0.765625 -1.648438 C 1.214844 -1.648438 2.386719 -1.453125 2.578125 -0.945312 C 2.59375 -0.914062 2.59375 -0.898438 2.59375 -0.886719 C 2.59375 -0.855469 2.59375 -0.871094 2.566406 -0.796875 C 2.550781 -0.796875 2.519531 -0.734375 2.460938 -0.71875 C 2.386719 -0.691406 2.265625 -0.675781 2.144531 -0.675781 C 1.828125 -0.675781 1.515625 -0.75 1.214844 -0.871094 C 1.109375 -0.898438 0.988281 -0.945312 0.898438 -0.988281 C 0.855469 -1.019531 0.808594 -1.035156 0.78125 -1.066406 C 0.765625 -1.078125 0.75 -1.09375 0.75 -1.09375 C 0.734375 -1.09375 0.75 -1.078125 0.765625 -1.035156 L 0.121094 -0.988281 C 0.105469 -0.871094 0.105469 -0.75 0.0898438 -0.644531 C 0.0742188 -0.644531 0.0585938 -0.644531 0.046875 -0.628906 C 0.046875 -0.628906 0.046875 -0.601562 0.046875 -0.585938 C 0.0585938 -0.585938 0.0742188 -0.570312 0.0742188 -0.554688 C 0.046875 -0.238281 0.015625 0.0585938 0 0.375 C -0.03125 0.824219 -0.046875 1.289062 -0.03125 1.753906 C 0 2.445312 0.046875 3.195312 0.34375 3.824219 C 0.464844 4.050781 0.644531 4.273438 0.945312 4.378906 C 0.976562 4.394531 0.988281 4.394531 1.019531 4.394531 C 1.035156 4.394531 1.066406 4.394531 1.078125 4.378906 C 1.109375 4.363281 1.15625 4.335938 1.15625 4.304688 C 1.171875 4.273438 1.183594 4.273438 1.183594 4.261719 C 1.199219 4.230469 1.199219 4.214844 1.214844 4.199219 C 1.214844 4.171875 1.230469 4.140625 1.230469 4.109375 C 1.246094 4.050781 1.261719 4.003906 1.273438 3.945312 C 1.289062 3.839844 1.304688 3.71875 1.320312 3.613281 C 1.351562 3.390625 1.351562 3.179688 1.363281 2.953125 C 1.363281 1.933594 1.199219 0.871094 0.628906 0 C 0.644531 -0.121094 0.660156 -0.238281 0.675781 -0.34375 C 1.035156 -0.195312 1.410156 -0.0742188 1.800781 -0.015625 C 1.875 -0.015625 1.964844 0 2.054688 0 C 2.625 0 3.195312 -0.269531 3.195312 -0.898438 Z M 1.035156 1.679688 C 1.078125 2.101562 1.078125 2.519531 1.050781 2.941406 C 1.035156 3.238281 1.003906 3.570312 0.914062 3.871094 C 0.914062 3.886719 0.914062 3.898438 0.898438 3.914062 C 0.464844 3.480469 0.464844 2.324219 0.464844 1.753906 C 0.480469 1.230469 0.539062 0.703125 0.601562 0.179688 C 0.839844 0.644531 0.976562 1.171875 1.035156 1.679688 Z M 1.035156 1.679688 "/></g></g></g><g fill="#000000" fill-opacity="1"><g transform="translate(224.277254, 224.606968)"><g><path d="M 4.050781 -0.121094 C 3.074219 -0.148438 2.789062 -0.585938 2.714844 -1.5 C 2.714844 -1.605469 2.699219 -1.695312 2.683594 -1.816406 C 2.671875 -1.875 2.671875 -1.933594 2.625 -2.023438 C 2.550781 -2.144531 2.460938 -2.234375 2.308594 -2.234375 C 2.265625 -2.234375 2.21875 -2.21875 2.191406 -2.203125 C 2.070312 -2.175781 2.023438 -2.113281 1.964844 -2.085938 C 1.84375 -1.964844 1.738281 -1.859375 1.636719 -1.726562 C 1.363281 -1.425781 1.109375 -1.140625 0.824219 -0.871094 C 0.796875 -0.839844 0.75 -0.796875 0.703125 -0.765625 C 0.703125 -1.003906 0.703125 -1.246094 0.703125 -1.484375 C 0.691406 -1.621094 0.703125 -1.753906 0.703125 -1.90625 C 1.199219 -2.371094 1.621094 -3 1.933594 -3.601562 C 2.355469 -4.273438 2.625 -5.113281 2.488281 -5.953125 C 2.460938 -6.164062 2.398438 -6.375 2.308594 -6.585938 C 2.203125 -6.78125 2.039062 -6.976562 1.785156 -7.078125 C 1.726562 -7.09375 1.664062 -7.109375 1.589844 -7.125 C 1.546875 -7.125 1.53125 -7.125 1.5 -7.125 L 1.484375 -7.125 C 1.453125 -7.125 1.453125 -7.125 1.441406 -7.125 L 1.378906 -7.109375 C 1.003906 -7.003906 0.839844 -6.628906 0.71875 -6.300781 C 0.433594 -5.503906 0.328125 -4.695312 0.238281 -3.898438 C 0.136719 -3.105469 0.0898438 -2.296875 0.046875 -1.5 C 0.03125 -1.09375 0.03125 -0.691406 0.046875 -0.285156 L 0.046875 -0.121094 L 0.0585938 -0.03125 C 0.0585938 -0.015625 0.0742188 0.015625 0.0742188 0.046875 C 0.0742188 0.046875 0.105469 0.136719 0.148438 0.179688 C 0.136719 0.210938 0.285156 0.328125 0.433594 0.328125 C 0.464844 0.328125 0.511719 0.316406 0.539062 0.300781 C 0.691406 0.226562 0.628906 0.238281 0.675781 0.210938 C 0.691406 0.179688 0.703125 0.164062 0.71875 0.136719 L 0.855469 0.015625 C 1.320312 -0.375 1.726562 -0.886719 2.085938 -1.363281 C 2.128906 -1.441406 2.191406 -1.5 2.234375 -1.558594 C 2.234375 -1.515625 2.25 -1.46875 2.265625 -1.425781 C 2.414062 -0.644531 2.730469 -0.015625 3.613281 -0.015625 C 3.765625 -0.015625 3.914062 -0.03125 4.050781 -0.0585938 C 4.066406 -0.0585938 4.078125 -0.0742188 4.078125 -0.0898438 C 4.078125 -0.105469 4.066406 -0.121094 4.050781 -0.121094 Z M 1.125 -6.148438 C 1.171875 -6.328125 1.246094 -6.496094 1.335938 -6.613281 C 1.394531 -6.675781 1.441406 -6.71875 1.46875 -6.734375 L 1.484375 -6.734375 C 1.484375 -6.734375 1.5 -6.734375 1.484375 -6.734375 L 1.5 -6.734375 C 1.53125 -6.734375 1.558594 -6.734375 1.574219 -6.734375 C 1.589844 -6.734375 1.636719 -6.71875 1.664062 -6.71875 C 1.921875 -6.628906 2.101562 -6.253906 2.175781 -5.910156 C 2.25 -5.535156 2.234375 -5.144531 2.160156 -4.769531 C 2.039062 -4.035156 1.246094 -2.65625 0.703125 -2.023438 C 0.703125 -3.300781 0.75 -4.933594 1.125 -6.148438 Z M 0.75 0.046875 C 0.765625 0 0.765625 0.03125 0.75 0.046875 Z M 0.75 0.046875 "/></g></g></g><g fill="#000000" fill-opacity="1"><g transform="translate(228.447252, 224.606968)"><g><path d="M 10.710938 1.214844 C 9.136719 1.484375 7.558594 1.558594 5.96875 1.558594 C 5.609375 1.558594 5.265625 1.546875 4.90625 1.546875 C 4.140625 1.53125 3.375 1.5 2.625 1.46875 C 2.65625 1.003906 2.671875 0.554688 2.671875 0.121094 C 2.671875 -0.34375 2.65625 -0.796875 2.609375 -1.261719 L 2.59375 -1.410156 C 2.59375 -1.425781 2.59375 -1.441406 2.59375 -1.453125 C 2.566406 -1.546875 2.460938 -1.621094 2.371094 -1.621094 C 2.339844 -1.621094 2.324219 -1.621094 2.296875 -1.605469 C 2.175781 -1.574219 2.113281 -1.441406 2.144531 -1.320312 C 2.144531 -1.304688 2.113281 -1.246094 2.070312 -1.199219 C 2.023438 -1.140625 1.964844 -1.078125 1.90625 -1.035156 C 1.621094 -0.75 1.078125 -0.40625 0.691406 -0.328125 C 0.644531 -0.316406 0.601562 -0.316406 0.554688 -0.316406 C 0.464844 -0.316406 0.390625 -0.34375 0.34375 -0.390625 C 0.269531 -0.480469 0.238281 -0.644531 0.238281 -0.796875 C 0.238281 -1.125 0.300781 -1.46875 0.238281 -1.816406 C 0.238281 -1.828125 0.226562 -1.84375 0.210938 -1.84375 C 0.195312 -1.84375 0.179688 -1.828125 0.179688 -1.816406 C 0.179688 -1.484375 0.0742188 -1.15625 0.046875 -0.808594 C 0.03125 -0.644531 0.015625 -0.433594 0.148438 -0.238281 C 0.285156 -0.046875 0.496094 -0.015625 0.71875 -0.015625 C 1.140625 -0.0585938 1.800781 -0.375 2.128906 -0.660156 C 2.113281 0.046875 2.085938 0.75 1.980469 1.441406 L 0.523438 1.351562 L -0.210938 1.320312 C -0.328125 1.320312 -0.464844 1.320312 -0.585938 1.320312 C -0.660156 1.320312 -0.71875 1.320312 -0.796875 1.335938 C -0.824219 1.335938 -0.871094 1.335938 -0.914062 1.351562 C -0.929688 1.351562 -0.976562 1.363281 -1.003906 1.378906 C -1.019531 1.394531 -1.050781 1.394531 -1.066406 1.410156 C -1.09375 1.425781 -1.140625 1.46875 -1.171875 1.515625 C -1.171875 1.53125 -1.183594 1.53125 -1.183594 1.546875 C -1.261719 1.695312 -1.183594 1.859375 -1.050781 1.921875 L -1.035156 1.921875 C -0.570312 2.144531 -0.121094 2.414062 0.253906 2.746094 C 0.523438 3.015625 0.703125 3.269531 0.855469 3.613281 C 0.871094 3.675781 0.886719 3.71875 0.898438 3.78125 L 0.960938 3.945312 C 0.960938 3.976562 0.960938 3.988281 0.988281 4.035156 C 1.003906 4.050781 1.003906 4.066406 1.019531 4.078125 C 1.050781 4.109375 1.050781 4.125 1.09375 4.15625 C 1.125 4.171875 1.171875 4.199219 1.230469 4.214844 C 1.289062 4.214844 1.351562 4.214844 1.394531 4.199219 C 1.410156 4.199219 1.425781 4.199219 1.441406 4.199219 C 2.203125 3.886719 2.488281 2.65625 2.566406 1.890625 C 2.953125 1.90625 3.34375 1.90625 3.734375 1.90625 C 6.058594 1.90625 8.445312 1.785156 10.726562 1.289062 C 10.738281 1.273438 10.738281 1.261719 10.738281 1.246094 C 10.738281 1.230469 10.726562 1.214844 10.710938 1.214844 Z M 1.738281 2.699219 C 1.664062 2.910156 1.574219 3.136719 1.453125 3.300781 C 1.410156 3.179688 1.351562 3.058594 1.273438 2.953125 C 0.988281 2.488281 0.554688 2.128906 0.0898438 1.859375 C 0.238281 1.859375 0.375 1.859375 0.511719 1.859375 L 1.921875 1.890625 C 1.875 2.160156 1.816406 2.429688 1.738281 2.699219 Z M 1.738281 2.699219 "/></g></g></g><g fill="#000000" fill-opacity="1"><g transform="translate(177.554011, 210.356969)"><g><path d="M 49.449219 -21.347656 L 37.09375 -20.960938 L 24.777344 -20.472656 C 20.648438 -20.296875 16.519531 -20.261719 12.421875 -19.914062 C 11.722656 -19.84375 10.988281 -19.773438 10.289062 -19.738281 C 10.289062 -19.773438 10.253906 -19.808594 10.21875 -19.808594 C 10.148438 -19.808594 10.113281 -19.773438 10.113281 -19.703125 C 6.789062 -19.386719 3.464844 -19.039062 0.140625 -18.476562 C 0.105469 -18.476562 0.0703125 -18.441406 0.0703125 -18.40625 C 0.0703125 -18.371094 0.105469 -18.335938 0.140625 -18.335938 C 1.925781 -18.265625 3.710938 -18.230469 5.460938 -18.230469 C 7 -18.230469 8.539062 -18.265625 10.078125 -18.300781 C 10.042969 -17.671875 10.007812 -17.042969 9.972656 -16.414062 C 9.9375 -15.328125 9.867188 -14.207031 9.761719 -13.125 C 9.589844 -10.917969 9.554688 -8.714844 9.097656 -6.613281 C 8.679688 -4.515625 7.664062 -1.574219 6.089844 0 C 4.480469 0.0351562 2.835938 0.210938 1.261719 0.699219 C 0.453125 0.910156 -0.523438 1.328125 -1.15625 1.890625 C -1.292969 2.03125 -1.398438 2.132812 -1.539062 2.34375 C -1.644531 2.519531 -1.75 2.800781 -1.679688 3.148438 C -1.574219 3.5 -1.328125 3.710938 -1.121094 3.816406 C -0.734375 4.023438 -0.0351562 4.09375 0.386719 4.09375 C 3.042969 4.09375 5.5625 2.765625 7.347656 0.839844 C 11.863281 0.839844 16.519531 2.34375 20.507812 4.445312 C 20.542969 4.445312 20.613281 4.445312 20.613281 4.410156 C 20.648438 4.375 20.648438 4.339844 20.613281 4.304688 C 16.761719 2.101562 12.492188 0.453125 7.980469 0.0703125 C 9.449219 -1.925781 10.148438 -3.917969 10.601562 -6.335938 C 10.988281 -8.644531 10.882812 -10.882812 10.847656 -13.089844 C 10.777344 -14.835938 10.707031 -16.585938 10.5 -18.300781 C 11.164062 -18.335938 11.828125 -18.335938 12.492188 -18.371094 C 16.621094 -18.476562 20.71875 -18.933594 24.847656 -19.246094 L 37.164062 -20.191406 L 49.449219 -21.207031 C 49.519531 -21.207031 49.519531 -21.242188 49.519531 -21.277344 C 49.519531 -21.3125 49.484375 -21.347656 49.449219 -21.347656 Z M 0.140625 2.90625 C -0.0351562 2.90625 -0.210938 2.90625 -0.351562 2.871094 C -0.421875 2.871094 -0.488281 2.871094 -0.523438 2.835938 C -0.488281 2.800781 -0.453125 2.730469 -0.421875 2.695312 C -0.246094 2.554688 -0.0703125 2.414062 0.140625 2.273438 C 1.679688 1.433594 3.429688 1.050781 5.179688 0.910156 C 3.78125 2.132812 1.996094 2.90625 0.140625 2.90625 Z M 0.140625 2.90625 "/></g></g></g><g fill="#000000" fill-opacity="1"><g transform="translate(191.83079, 210.356969)"><g><path d="M 14.453125 -0.28125 C 12.109375 -0.28125 11.652344 -1.226562 10.8125 -3.183594 C 10.671875 -3.429688 10.570312 -3.746094 10.183594 -3.953125 C 10.007812 -4.023438 9.832031 -4.023438 9.695312 -4.023438 C 9.484375 -4.023438 9.308594 -3.988281 9.132812 -3.953125 C 8.855469 -3.847656 8.574219 -3.710938 8.363281 -3.535156 C 7.875 -3.253906 7.488281 -2.871094 7.105469 -2.519531 C 6.789062 -2.203125 6.472656 -1.925781 6.195312 -1.679688 C 6.160156 -1.75 6.160156 -1.820312 6.125 -1.890625 C 6.054688 -2.378906 6.019531 -2.90625 5.914062 -3.429688 C 5.878906 -3.710938 5.808594 -3.988281 5.703125 -4.269531 C 5.667969 -4.445312 5.597656 -4.585938 5.496094 -4.757812 C 5.355469 -4.933594 5.179688 -5.179688 4.863281 -5.320312 C 4.722656 -5.355469 4.585938 -5.390625 4.445312 -5.390625 C 4.023438 -5.390625 3.746094 -5.25 3.394531 -5.039062 C 3.113281 -4.828125 2.90625 -4.621094 2.730469 -4.375 C 2.378906 -3.953125 2.101562 -3.570312 1.785156 -3.148438 C 1.503906 -2.730469 1.226562 -2.308594 0.945312 -1.890625 L 0.769531 -1.609375 C 0.699219 -2.03125 0.628906 -2.414062 0.523438 -2.835938 C 0.523438 -2.871094 0.488281 -2.90625 0.453125 -2.90625 C 0.421875 -2.90625 0.386719 -2.871094 0.386719 -2.835938 C 0.246094 -2.34375 0.175781 -1.820312 0.105469 -1.328125 C 0.0703125 -1.050781 0.0703125 -0.804688 0.0351562 -0.523438 C 0.0351562 -0.421875 0.0351562 -0.28125 0.0351562 -0.105469 L 0.0351562 0 C 0.0351562 0.0351562 0.0351562 0.0703125 0.0703125 0.140625 L 0.0703125 0.175781 C 0.105469 0.210938 0.105469 0.246094 0.140625 0.28125 C 0.140625 0.28125 0.210938 0.386719 0.316406 0.453125 C 0.386719 0.488281 0.453125 0.488281 0.523438 0.488281 C 0.804688 0.488281 0.804688 0.488281 1.015625 0.28125 C 1.015625 0.246094 1.050781 0.210938 1.050781 0.175781 L 1.085938 0.140625 L 1.085938 0.0703125 C 1.121094 0.0351562 1.121094 0 1.121094 0 C 1.328125 -0.28125 1.714844 -0.699219 2.03125 -1.050781 L 3.007812 -2.203125 C 3.324219 -2.589844 3.675781 -2.972656 3.953125 -3.359375 C 4.09375 -3.5 4.234375 -3.675781 4.375 -3.746094 C 4.445312 -3.570312 4.550781 -3.359375 4.585938 -3.148438 C 4.722656 -2.695312 4.792969 -2.203125 4.933594 -1.679688 C 5.003906 -1.398438 5.039062 -1.15625 5.25 -0.769531 C 5.320312 -0.664062 5.390625 -0.558594 5.597656 -0.421875 C 5.667969 -0.351562 5.84375 -0.316406 5.984375 -0.316406 C 6.125 -0.316406 6.230469 -0.351562 6.300781 -0.421875 L 6.507812 -0.523438 C 6.613281 -0.59375 6.648438 -0.628906 6.71875 -0.664062 C 7.175781 -1.050781 7.488281 -1.46875 7.839844 -1.820312 C 8.257812 -2.34375 8.785156 -2.90625 9.414062 -3.148438 C 9.554688 -3.183594 9.730469 -3.21875 9.867188 -3.21875 C 9.9375 -3.21875 10.078125 -3.042969 10.183594 -2.871094 C 10.324219 -2.660156 10.429688 -2.414062 10.535156 -2.203125 C 11.304688 -0.804688 12.214844 -0.105469 13.789062 -0.105469 C 14.03125 -0.105469 14.242188 -0.105469 14.488281 -0.140625 C 14.523438 -0.140625 14.558594 -0.175781 14.558594 -0.210938 C 14.558594 -0.246094 14.523438 -0.28125 14.453125 -0.28125 Z M 1.015625 -0.246094 L 1.050781 -0.210938 C 1.015625 -0.246094 1.015625 -0.246094 1.015625 -0.246094 Z M 4.269531 -3.917969 C 4.234375 -3.917969 4.234375 -3.953125 4.269531 -3.917969 Z M 4.269531 -3.917969 "/></g></g></g><g fill="#000000" fill-opacity="1"><g transform="translate(206.597455, 210.356969)"><g><path d="M 9.308594 -1.292969 C 8.820312 -1.15625 8.257812 -1.015625 7.769531 -1.015625 C 6.789062 -1.015625 6.265625 -1.503906 5.984375 -2.449219 L 5.914062 -2.765625 C 5.914062 -2.765625 5.914062 -2.765625 5.84375 -2.941406 C 5.773438 -3.042969 5.597656 -3.113281 5.496094 -3.148438 C 5.425781 -3.148438 5.355469 -3.148438 5.285156 -3.148438 C 4.96875 -3.042969 4.828125 -2.941406 4.65625 -2.871094 C 4.304688 -2.660156 3.988281 -2.484375 3.675781 -2.273438 C 3.042969 -1.890625 2.414062 -1.503906 1.820312 -1.363281 C 1.714844 -1.328125 1.609375 -1.328125 1.503906 -1.328125 C 1.398438 -1.328125 1.46875 -1.328125 1.503906 -1.328125 C 1.539062 -1.292969 1.503906 -1.363281 1.503906 -1.46875 C 1.503906 -1.539062 1.539062 -1.609375 1.574219 -1.714844 C 1.714844 -2.066406 2.167969 -2.554688 2.695312 -2.90625 C 3.183594 -3.324219 3.78125 -3.640625 4.410156 -3.847656 C 4.6875 -3.917969 4.96875 -3.988281 5.25 -3.988281 C 5.597656 -3.988281 5.878906 -3.917969 6.160156 -3.605469 C 6.195312 -3.570312 6.195312 -3.570312 6.230469 -3.570312 C 6.265625 -3.570312 6.300781 -3.605469 6.300781 -3.640625 L 6.300781 -3.675781 C 6.265625 -4.058594 5.949219 -4.480469 5.527344 -4.65625 C 5.109375 -4.863281 4.6875 -4.898438 4.234375 -4.898438 C 2.589844 -4.898438 0.59375 -3.78125 0.105469 -2.132812 C 0.0351562 -1.890625 0 -1.574219 0.0703125 -1.261719 C 0.140625 -1.015625 0.210938 -0.699219 0.488281 -0.421875 C 0.769531 -0.105469 1.191406 0 1.503906 0 C 1.785156 -0.0351562 2.03125 -0.105469 2.238281 -0.175781 C 3.042969 -0.523438 3.640625 -1.015625 4.234375 -1.433594 C 4.550781 -1.679688 4.828125 -1.890625 5.109375 -2.101562 C 5.179688 -2.132812 5.214844 -2.167969 5.25 -2.203125 L 5.285156 -2.167969 C 5.460938 -1.820312 5.667969 -1.433594 5.984375 -1.15625 C 6.265625 -0.839844 6.71875 -0.628906 7.105469 -0.59375 C 7.980469 -0.59375 8.539062 -0.769531 9.34375 -1.15625 C 9.378906 -1.15625 9.414062 -1.191406 9.378906 -1.226562 C 9.378906 -1.292969 9.34375 -1.292969 9.308594 -1.292969 Z M 5.144531 -2.519531 C 5.144531 -2.554688 5.144531 -2.554688 5.144531 -2.519531 Z M 5.144531 -2.519531 "/></g></g></g><g fill="#000000" fill-opacity="1"><g transform="translate(215.695405, 210.356969)"><g><path d="M 36.882812 2.519531 C 36.851562 2.484375 36.816406 2.484375 36.78125 2.484375 C 34.050781 3.917969 29.324219 4.09375 26.246094 4.09375 C 23.167969 4.09375 20.050781 3.882812 16.972656 3.675781 C 13.613281 3.394531 10.289062 3.042969 6.964844 2.695312 L 6.859375 2.660156 C 6.894531 1.925781 6.894531 1.191406 6.929688 0.453125 C 6.929688 -0.59375 6.894531 -1.679688 6.789062 -2.730469 L 5.5625 -2.90625 C 5.597656 -3.042969 5.527344 -2.90625 5.460938 -2.835938 C 5.390625 -2.765625 5.320312 -2.695312 5.214844 -2.625 C 4.445312 -1.996094 2.765625 -1.085938 1.75 -1.015625 C 1.679688 -1.015625 1.609375 -1.015625 1.539062 -1.015625 C 1.398438 -1.015625 1.261719 -1.015625 1.15625 -1.050781 C 1.085938 -1.085938 1.015625 -1.121094 0.980469 -1.191406 C 0.945312 -1.226562 0.910156 -1.226562 0.875 -1.398438 C 0.769531 -1.75 0.875 -2.273438 1.121094 -2.695312 C 1.574219 -3.535156 2.695312 -4.757812 3.746094 -4.757812 C 4.128906 -4.757812 4.515625 -4.585938 4.6875 -4.199219 C 4.6875 -4.164062 4.722656 -4.128906 4.792969 -4.164062 C 4.828125 -4.164062 4.828125 -4.199219 4.828125 -4.234375 L 4.828125 -4.269531 C 4.515625 -5.039062 4.023438 -5.074219 3.324219 -5.074219 C 2.238281 -4.898438 1.085938 -3.988281 0.488281 -3.078125 C 0.175781 -2.554688 -0.105469 -1.925781 0.0351562 -1.15625 C 0.0703125 -1.085938 0.0703125 -1.050781 0.105469 -0.945312 C 0.175781 -0.839844 0.210938 -0.734375 0.28125 -0.628906 C 0.386719 -0.453125 0.558594 -0.351562 0.734375 -0.246094 C 1.121094 -0.0703125 1.46875 -0.0351562 1.785156 -0.0351562 C 2.449219 -0.0351562 3.007812 -0.210938 3.605469 -0.386719 C 4.164062 -0.59375 4.6875 -0.839844 5.214844 -1.121094 C 5.320312 -1.191406 5.425781 -1.261719 5.527344 -1.328125 C 5.527344 -0.0351562 5.460938 1.226562 5.320312 2.519531 L 1.960938 2.132812 C 1.121094 2.03125 0.28125 1.960938 -0.558594 1.890625 C -0.980469 1.855469 -1.398438 1.820312 -1.820312 1.785156 C -2.066406 1.785156 -2.273438 1.785156 -2.519531 1.785156 C -2.625 1.785156 -2.730469 1.785156 -2.871094 1.820312 C -2.941406 1.820312 -3.007812 1.820312 -3.113281 1.855469 C -3.183594 1.855469 -3.21875 1.890625 -3.289062 1.925781 C -3.394531 1.960938 -3.5 2.03125 -3.640625 2.203125 C -3.640625 2.238281 -3.675781 2.273438 -3.675781 2.308594 C -3.816406 2.625 -3.675781 2.972656 -3.359375 3.113281 L -3.324219 3.148438 C -0.839844 4.269531 1.15625 6.125 2.378906 8.574219 L 2.90625 9.554688 C 2.941406 9.589844 2.972656 9.660156 3.007812 9.695312 C 3.042969 9.730469 3.113281 9.796875 3.183594 9.867188 L 3.21875 9.902344 C 3.253906 9.902344 3.324219 9.972656 3.394531 9.972656 C 3.5 10.007812 3.605469 10.042969 3.710938 10.042969 C 3.78125 10.042969 3.816406 10.007812 3.882812 10.007812 C 3.917969 10.007812 3.917969 9.972656 3.953125 9.972656 C 6.089844 9.0625 6.542969 5.773438 6.753906 3.710938 L 6.859375 3.710938 C 12.316406 4.234375 17.8125 4.621094 23.308594 4.621094 C 27.085938 4.621094 33.488281 4.550781 36.851562 2.625 C 36.882812 2.625 36.917969 2.554688 36.882812 2.519531 Z M 3.882812 8.082031 L 3.746094 7.839844 C 2.660156 5.914062 1.261719 4.269531 -0.628906 3.113281 L 5.214844 3.570312 C 5.074219 4.828125 4.722656 7.070312 3.882812 8.082031 Z M 3.882812 8.082031 "/></g></g></g><g fill="#000000" fill-opacity="1"><g transform="translate(223.463654, 210.356969)"><g><path d="M 3.78125 -0.769531 C 3.570312 -0.769531 3.324219 -0.734375 3.113281 -0.734375 C 2.554688 -0.734375 1.855469 -0.839844 1.785156 -1.503906 C 1.75 -1.855469 1.925781 -2.308594 1.855469 -2.765625 C 1.75 -3.253906 1.679688 -3.78125 1.226562 -4.339844 C 1.191406 -4.375 1.121094 -4.375 1.085938 -4.304688 C 0.664062 -3.847656 0.453125 -3.394531 0.316406 -2.835938 C 0.175781 -2.308594 0.351562 -1.714844 0.628906 -1.121094 C 0.875 -0.351562 1.574219 -0.0703125 2.308594 -0.0703125 C 2.90625 -0.140625 3.394531 -0.351562 3.847656 -0.628906 C 3.847656 -0.628906 3.882812 -0.664062 3.882812 -0.699219 C 3.882812 -0.734375 3.816406 -0.769531 3.78125 -0.769531 Z M 1.121094 -6.335938 C 1.75 -6.402344 1.996094 -6.472656 2.132812 -6.542969 C 2.308594 -6.648438 1.996094 -6.71875 1.925781 -6.789062 C 1.820312 -6.859375 1.714844 -6.929688 1.574219 -7 C 1.433594 -7.105469 1.292969 -7.175781 1.121094 -7.242188 C 1.050781 -7.277344 0.980469 -7.277344 0.910156 -7.242188 C 0.699219 -7.175781 0.59375 -7.105469 0.453125 -7 C 0.316406 -6.929688 0.210938 -6.859375 0.105469 -6.789062 C 0 -6.71875 -0.28125 -6.648438 -0.105469 -6.542969 C 0.0351562 -6.472656 0.28125 -6.402344 0.910156 -6.335938 C 0.980469 -6.335938 1.050781 -6.335938 1.121094 -6.335938 Z M 1.121094 -6.335938 "/></g></g></g><g fill="#000000" fill-opacity="1"><g transform="translate(227.557732, 210.356969)"><g><path d="M 7.558594 -2.308594 C 7.523438 -2.308594 7.488281 -2.308594 7.453125 -2.273438 L 7.453125 -2.238281 C 7.3125 -2.066406 7 -1.925781 6.71875 -1.820312 C 6.4375 -1.679688 6.160156 -1.574219 5.84375 -1.503906 C 4.65625 -1.15625 3.535156 -0.980469 2.308594 -0.980469 C 2.03125 -1.015625 1.785156 -1.085938 1.574219 -1.15625 C 1.398438 -1.261719 1.328125 -1.363281 1.292969 -1.46875 C 1.226562 -1.714844 1.433594 -2.101562 1.820312 -2.414062 C 2.519531 -3.113281 3.605469 -3.746094 4.585938 -3.988281 C 4.792969 -4.023438 4.96875 -4.058594 5.179688 -4.058594 C 5.460938 -4.058594 5.773438 -3.988281 6.089844 -3.710938 C 6.160156 -3.710938 6.195312 -3.746094 6.195312 -3.78125 C 6.160156 -4.128906 5.914062 -4.480469 5.597656 -4.722656 C 5.285156 -4.933594 4.898438 -5.039062 4.515625 -5.074219 C 2.695312 -5.074219 0.734375 -4.269531 0.105469 -2.414062 C -0.0351562 -1.996094 -0.0703125 -1.46875 0.140625 -1.050781 C 0.351562 -0.523438 0.804688 -0.246094 1.191406 -0.105469 C 1.574219 0 1.925781 0 2.308594 0 C 3.535156 -0.0703125 6.964844 -0.980469 7.59375 -2.203125 C 7.59375 -2.238281 7.59375 -2.273438 7.558594 -2.308594 Z M 7.558594 -2.308594 "/></g></g></g><g fill="#000000" fill-opacity="1"><g transform="translate(235.360965, 210.356969)"><g><path d="M 9.308594 -1.292969 C 8.820312 -1.15625 8.257812 -1.015625 7.769531 -1.015625 C 6.789062 -1.015625 6.265625 -1.503906 5.984375 -2.449219 L 5.914062 -2.765625 C 5.914062 -2.765625 5.914062 -2.765625 5.84375 -2.941406 C 5.773438 -3.042969 5.597656 -3.113281 5.496094 -3.148438 C 5.425781 -3.148438 5.355469 -3.148438 5.285156 -3.148438 C 4.96875 -3.042969 4.828125 -2.941406 4.65625 -2.871094 C 4.304688 -2.660156 3.988281 -2.484375 3.675781 -2.273438 C 3.042969 -1.890625 2.414062 -1.503906 1.820312 -1.363281 C 1.714844 -1.328125 1.609375 -1.328125 1.503906 -1.328125 C 1.398438 -1.328125 1.46875 -1.328125 1.503906 -1.328125 C 1.539062 -1.292969 1.503906 -1.363281 1.503906 -1.46875 C 1.503906 -1.539062 1.539062 -1.609375 1.574219 -1.714844 C 1.714844 -2.066406 2.167969 -2.554688 2.695312 -2.90625 C 3.183594 -3.324219 3.78125 -3.640625 4.410156 -3.847656 C 4.6875 -3.917969 4.96875 -3.988281 5.25 -3.988281 C 5.597656 -3.988281 5.878906 -3.917969 6.160156 -3.605469 C 6.195312 -3.570312 6.195312 -3.570312 6.230469 -3.570312 C 6.265625 -3.570312 6.300781 -3.605469 6.300781 -3.640625 L 6.300781 -3.675781 C 6.265625 -4.058594 5.949219 -4.480469 5.527344 -4.65625 C 5.109375 -4.863281 4.6875 -4.898438 4.234375 -4.898438 C 2.589844 -4.898438 0.59375 -3.78125 0.105469 -2.132812 C 0.0351562 -1.890625 0 -1.574219 0.0703125 -1.261719 C 0.140625 -1.015625 0.210938 -0.699219 0.488281 -0.421875 C 0.769531 -0.105469 1.191406 0 1.503906 0 C 1.785156 -0.0351562 2.03125 -0.105469 2.238281 -0.175781 C 3.042969 -0.523438 3.640625 -1.015625 4.234375 -1.433594 C 4.550781 -1.679688 4.828125 -1.890625 5.109375 -2.101562 C 5.179688 -2.132812 5.214844 -2.167969 5.25 -2.203125 L 5.285156 -2.167969 C 5.460938 -1.820312 5.667969 -1.433594 5.984375 -1.15625 C 6.265625 -0.839844 6.71875 -0.628906 7.105469 -0.59375 C 7.980469 -0.59375 8.539062 -0.769531 9.34375 -1.15625 C 9.378906 -1.15625 9.414062 -1.191406 9.378906 -1.226562 C 9.378906 -1.292969 9.34375 -1.292969 9.308594 -1.292969 Z M 5.144531 -2.519531 C 5.144531 -2.554688 5.144531 -2.554688 5.144531 -2.519531 Z M 5.144531 -2.519531 "/></g></g></g></svg>